<?xml version="1.0" encoding="UTF-8" standalone="no"?>
<!-- Generator: Adobe Illustrator 16.0.0, SVG Export Plug-In . SVG Version: 6.00 Build 0)  -->

<svg
   version="1.1"
   x="0px"
   y="0px"
   width="498.66376"
   height="354.83289"
   viewBox="0 0 498.66376 354.83289"
   enable-background="new 0 0 800 800"
   xml:space="preserve"
   id="svg16"
   xmlns="http://www.w3.org/2000/svg"
   xmlns:svg="http://www.w3.org/2000/svg"><defs
   id="defs16" />

<g
   id="Layer_2"
   transform="translate(-139.688,-250.201)">
	<g
   id="QUoz6q_2_"
   style="display:inline">
		<g
   id="g7">
			<path
   fill-rule="evenodd"
   clip-rule="evenodd"
   fill="#e1e1e0"
   d="m 391.128,277.547 c -24.135,-3.688 -89.812,28.147 -151.336,43.231 -58.855,14.425 -93.346,30.996 -100.104,39.895 0.856,6.843 161.948,70.963 242.406,106.22 24.752,10.427 53.467,22.107 78.343,32.606 -3.684,-13.447 -14.236,-50.412 -19.501,-65.663 -3.503,-10.134 -4.896,-20.878 1.001,-26.774 0.587,-5.021 0.657,-8.595 0.657,-13.938 -18.239,-0.18 -18.239,-7.55 -31.871,-49.194 -6.842,-20.898 -13.821,-40.9 -19.595,-66.383 z"
   id="path1" />
			<path
   fill-rule="evenodd"
   clip-rule="evenodd"
   fill="#d7d8d8"
   d="m 460.324,499.293 c -26.078,-10.803 -52.156,-21.599 -78.229,-32.395 -5.45,29.4 -19.638,50.038 -35.667,73.069 -11.307,16.241 -23.289,32.623 -33.842,49.457 -6.654,10.611 -3.295,16.886 8.813,15.391 55.835,-6.89 111.733,-13.619 166.505,-27.139 -11.951,-23.892 -17.478,-45.264 -27.58,-78.383 z"
   id="path2" />
			<path
   fill-rule="evenodd"
   clip-rule="evenodd"
   fill="#dadadb"
   d="m 441.919,393.145 c 0,4.566 0.005,9.137 0.005,13.708 30.315,21.458 59.607,41.546 97.479,74.453 27.3,-40.034 51.271,-82.022 73.433,-125.077 -19.368,2.439 -38.897,5.757 -60.086,9.439 -26.898,5.716 -103.728,25.614 -110.831,27.477 z"
   id="path3" />
			<path
   fill-rule="evenodd"
   clip-rule="evenodd"
   fill="#ededed"
   d="M 441.919,393.145 C 478.834,383.89 516.063,375 552.66,365.371 c 6.542,-9.453 -3.705,-14.475 -13.727,-19.772 -13.182,-6.968 -23.517,-12.514 -41.508,-21.083 -36.204,-13.911 -69.117,-35.265 -106.298,-46.968 6.843,36.208 20.543,72.708 32.497,105.203 3.262,8.862 10.163,10.325 18.295,10.394 z"
   id="path4" />
			<path
   fill-rule="evenodd"
   clip-rule="evenodd"
   fill="#ededed"
   d="m 539.403,481.306 c -30.108,-27.94 -65.135,-51.525 -97.479,-74.453 -7.849,8.989 -3.643,18.274 -0.82,27.634 6.494,21.575 12.82,43.199 19.221,64.807 10.129,33.316 14.52,52.285 27.58,78.384 19.121,-31.079 36.609,-63.035 51.498,-96.372 z"
   id="path5" />
			<path
   fill-rule="evenodd"
   clip-rule="evenodd"
   fill="#e2e4e5"
   d="m 497.426,324.515 c 15.163,8.155 30,15.368 45.192,23.482 6.606,3.525 15.023,7.023 10.042,17.373 20.155,-2.425 45.84,-7.12 60.176,-9.142 9.517,-13.912 3.26,-36.839 0.146,-55.268 0.141,-8.646 -3.606,-35.648 -5.085,-50.759 -32.449,12.654 -50.17,30.572 -83.414,58.03 -8.133,6.718 -16.402,13.557 -27.057,16.284 z"
   id="path6" />
			<path
   fill-rule="evenodd"
   clip-rule="evenodd"
   fill="#c6d2d2"
   d="m 607.896,250.202 c 1.479,17.173 3.391,33.836 5.085,50.754 32.792,-17.031 32.823,-17.071 5.708,-42.522 -3.281,-3.084 -7.181,-5.505 -10.793,-8.232 z"
   id="path7" />
		</g>
	</g>
	<g
   id="g16"
   style="display:inline">
		<path
   fill-rule="evenodd"
   clip-rule="evenodd"
   fill="#000100"
   d="m 373.926,361.778 c -3.58,-10.149 -7.14,-19.052 -10.49,-28.547 0.154,-0.152 -2.173,1.705 -3.414,6.672 -1.562,6.255 -3.527,13.428 -13.752,12.477 3.488,-9.353 6.441,-18.254 10.158,-26.824 1.931,-4.453 12.775,-4.075 14.553,0.479 5.459,14.016 10.931,29.756 16.501,44.936 -15.553,-1.203 -25.287,-2.6 -32.424,-1.123 -9.815,2.028 -7.497,14.101 -19.77,10.811 6.429,-3.675 3.016,-16.086 12.275,-18.482 6.249,-1.616 16.027,-1.563 26.363,-0.399 z"
   id="path8" />
		<path
   fill-rule="evenodd"
   clip-rule="evenodd"
   fill="#000100"
   d="m 461.145,357.037 c 10.332,-1.717 17.625,4.217 28.509,23.188 -11.779,1.039 -16.509,-2.809 -28.509,-23.188 z"
   id="path9" />
		<path
   fill-rule="evenodd"
   clip-rule="evenodd"
   fill="#000100"
   d="m 575.963,361.778 c -3.581,-10.149 -7.142,-19.052 -10.49,-28.547 0.152,-0.152 -2.176,1.705 -3.416,6.672 -1.562,6.255 -3.525,13.428 -13.752,12.477 3.488,-9.353 6.441,-18.254 10.159,-26.824 1.931,-4.453 12.774,-4.075 14.552,0.479 5.458,14.016 10.931,29.756 16.501,44.936 -15.554,-1.203 -25.288,-2.6 -32.424,-1.123 -9.815,2.028 -7.497,14.101 -19.769,10.811 6.428,-3.675 3.016,-16.086 12.275,-18.482 6.249,-1.616 16.026,-1.563 26.364,-0.399 z"
   id="path10" />
		<path
   fill-rule="evenodd"
   clip-rule="evenodd"
   fill="#000100"
   d="m 443.537,353.788 c 1.125,-0.312 1.25,-2.434 1.25,-16.062 0,-7.312 0.25,-14 -1.438,-17.438 4.875,-1.688 9.75,3.875 10.438,7.125 1.188,10.188 0.5,18.188 0.5,18.188 0,0 16.875,-22.5 32.875,-19.938 -0.375,0.688 -11.75,17.812 -23.25,23.812 -11.5,6 -21.5,4.626 -20.375,4.313 z"
   id="path11" />
		<path
   fill-rule="evenodd"
   clip-rule="evenodd"
   fill="#000100"
   d="m 470.964,460.56 c -1.721,-5.947 1.289,-5.543 4.86,-8.488 8.269,-6.817 10.443,-18.304 5.723,-27.704 -6.068,-12.077 -22.768,-13.688 -30.925,-2.935 -6.147,7.355 -4.397,18.48 -10.44,13.477 -3.118,-2.583 -2.707,-9.246 -0.985,-13.176 5.188,-11.84 18.578,-18.493 31.402,-15.883 14.148,2.877 23.154,13.668 23.532,28.197 0.386,14.776 -7.977,22.469 -23.167,26.512 z"
   id="path12" />
		<path
   fill-rule="evenodd"
   clip-rule="evenodd"
   d="m 322.396,462.146 c 6.897,2.114 12.036,-2.267 14.015,-7.038 1.396,-4.652 6.146,-17.875 7.932,-23.315 4.358,-13.274 6.232,-22.849 10.904,-22.589 -2.596,-6.752 -11.022,-4.272 -13.533,2.693 -6.432,17.854 -12.794,32.009 -19.318,50.249 z"
   id="path13" />
		<g
   id="g14">
			<path
   fill-rule="evenodd"
   clip-rule="evenodd"
   d="m 585.688,415.694 c 0,-8.827 4.414,-10.385 10.239,-10.906 0,2.617 0,18.887 0,22.332 -2.799,0.121 -10.239,-4.935 -10.239,-11.426 z"
   id="path14" />
		</g>
		<path
   fill-rule="evenodd"
   clip-rule="evenodd"
   fill="#000100"
   d="m 409.35,461.038 c -2.125,1.625 -11.694,0.576 -14,-6.875 -5.25,-17.625 -14.75,-41.125 -14.75,-41.125 -0.75,1.875 -6.625,18.125 -8.625,23.125 -2,5 -7.125,7.25 -11.125,1.875 1.464,-3.764 8.5,-22.375 12.25,-30.25 6.5,-6.25 13.375,-2.125 15.125,-0.25 1.75,1.875 20.5,51.375 21.125,53.5 z"
   id="path15" />
		<path
   fill-rule="evenodd"
   clip-rule="evenodd"
   fill="#000100"
   d="m 543.35,412.538 c 0.25,-9.875 14.25,-8.875 17.625,-3 2.5,3.875 31.625,50.375 33,52.375 -2.375,2.125 -10.125,2.625 -13.375,-2.25 -3.25,-4.875 -28.25,-44.875 -28.25,-44.875 l 0.125,41.375 c 0,0 -0.375,9.125 -9.25,4.875 0.125,-5.625 0.125,-41.875 0.125,-48.5 z"
   id="path16" />
	</g>
</g>
</svg>
