<svg xmlns="http://www.w3.org/2000/svg" viewBox="0 0 186.79 36.19"><defs><style>.cls-1{fill:#d71920;}</style></defs><g id="Layer_2" data-name="Layer 2"><g id="Layer_1-2" data-name="Layer 1"><path class="cls-1" d="M63.18,36.18V18.05a17.61,17.61,0,0,0-1.41-7,18.23,18.23,0,0,0-9.59-9.59,18.23,18.23,0,0,0-14.06,0,18.42,18.42,0,0,0-5.8,3.87A17.81,17.81,0,0,0,28.41,11,17.61,17.61,0,0,0,27,18.05a17.67,17.67,0,0,0,1.41,7,18.22,18.22,0,0,0,9.71,9.71,17.67,17.67,0,0,0,7,1.41ZM56,29H45.13a11,11,0,0,1-7.78-3.18,11.07,11.07,0,0,1-3.18-7.78A10.55,10.55,0,0,1,35,13.82a10.93,10.93,0,0,1,2.33-3.46A10.69,10.69,0,0,1,40.86,8a11,11,0,0,1,4.27-.85A10.72,10.72,0,0,1,49.36,8a10.92,10.92,0,0,1,5.8,5.8A10.55,10.55,0,0,1,56,18.05Z"></path><path class="cls-1" d="M101.38,36.18V18.05A17.61,17.61,0,0,0,100,11a18.23,18.23,0,0,0-9.59-9.59,18.23,18.23,0,0,0-14.06,0,18.58,18.58,0,0,0-5.81,3.87A17.94,17.94,0,0,0,66.61,11a17.61,17.61,0,0,0-1.41,7.05,17.67,17.67,0,0,0,1.41,7,18.13,18.13,0,0,0,9.71,9.71,17.67,17.67,0,0,0,7,1.41ZM94.21,29H83.33a10.88,10.88,0,0,1-11-11,10.72,10.72,0,0,1,.84-4.23,11.13,11.13,0,0,1,2.34-3.46A10.69,10.69,0,0,1,79.06,8a11,11,0,0,1,4.27-.85A10.72,10.72,0,0,1,87.56,8a10.92,10.92,0,0,1,5.8,5.8,10.55,10.55,0,0,1,.85,4.23Z"></path><path class="cls-1" d="M124.64,0V18.05a11,11,0,0,1-.84,4.27,10.69,10.69,0,0,1-2.34,3.51A11,11,0,0,1,113.68,29h-9.33v7.17h9.33a17.9,17.9,0,0,0,12.78-5.31,18.75,18.75,0,0,0,3.87-5.77,17.54,17.54,0,0,0,1.41-7V0Z"></path><path class="cls-1" d="M7.09,0V18.05a11,11,0,0,0,3.19,7.78A10.91,10.91,0,0,0,18.05,29h9.34v7.17H18.05a17.67,17.67,0,0,1-7-1.41,17.89,17.89,0,0,1-5.76-3.9A18.75,18.75,0,0,1,1.41,25.1a17.54,17.54,0,0,1-1.41-7V0Z"></path><rect class="cls-1" x="138.58" width="7.09" height="36.18"></rect><path class="cls-1" d="M161.41,0a10.48,10.48,0,0,0-4.23.85,10.55,10.55,0,0,0-5.72,5.72,10.55,10.55,0,0,0-.85,4.23,10.55,10.55,0,0,0,.85,4.23,11.39,11.39,0,0,0,2.29,3.47,10.69,10.69,0,0,0,7.66,3.18h14.5a3.58,3.58,0,0,1,2.66,1.05,3.51,3.51,0,0,1,1.05,2.58,3.58,3.58,0,0,1-3.71,3.7H154.16v7.17h21.75a10.65,10.65,0,0,0,4.23-.84A10.89,10.89,0,0,0,183.61,33,11.13,11.13,0,0,0,186,29.54a10.75,10.75,0,0,0-2.34-11.89,11.3,11.3,0,0,0-3.47-2.3,10.65,10.65,0,0,0-4.23-.84h-14.5a3.47,3.47,0,0,1-2.58-1.09,3.65,3.65,0,0,1-1.05-2.62,3.59,3.59,0,0,1,3.63-3.63h21.84V0Z"></path></g></g></svg>