<?xml version="1.0" encoding="UTF-8"?>
<svg width="338px" height="308px" viewBox="0 0 338 308" version="1.1" xmlns="http://www.w3.org/2000/svg" xmlns:xlink="http://www.w3.org/1999/xlink">
    <!-- Generator: Sketch 61.2 (89653) - https://sketch.com -->
    <title>Group 3@2x</title>
    <desc>Created with Sketch.</desc>
    <g id="Page-1" stroke="none" stroke-width="1" fill="none" fill-rule="evenodd">
        <g id="Nord-Hero-V3-Copy-3" transform="translate(-34.000000, -466.000000)">
            <g id="Group-3" transform="translate(34.000000, 466.000000)">
                <rect id="Rectangle-Copy-9" fill="#261156" x="0" y="0" width="338" height="308"/>
                <path d="M65.932,186 L65.932,144.816 L95.212,186 L106.444,186 L106.444,124.176 L93.484,124.176 L93.484,165.36 L64.204,124.176 L52.972,124.176 L52.972,186 L65.932,186 Z M138.64,186.96 C155.152,186.96 163.408,179.056 163.408,163.248 C163.408,155.568 161.36,149.696 157.264,145.632 C153.168,141.568 146.96,139.536 138.64,139.536 C130.32,139.536 124.128,141.568 120.064,145.632 C116,149.696 113.968,155.568 113.968,163.248 C113.968,179.056 122.192,186.96 138.64,186.96 Z M138.64,175.92 C134.48,175.92 131.52,174.96 129.76,173.04 C128,171.12 127.12,167.856 127.12,163.248 C127.12,158.64 128,155.376 129.76,153.456 C131.52,151.536 134.48,150.576 138.64,150.576 C142.864,150.576 145.856,151.536 147.616,153.456 C149.376,155.376 150.256,158.64 150.256,163.248 C150.256,167.856 149.376,171.12 147.616,173.04 C145.856,174.96 142.864,175.92 138.64,175.92 Z M183.892,186 L183.892,154.224 C185.684,153.2 188.148,152.224 191.284,151.296 C194.42,150.368 197.364,149.712 200.116,149.328 L200.116,149.328 L200.116,139.536 C197.172,139.92 194.196,140.624 191.188,141.648 C188.18,142.672 185.62,143.856 183.508,145.2 L183.508,145.2 L182.932,140.496 L170.932,140.496 L170.932,186 L183.892,186 Z M220.408,186.96 C223.544,186.96 226.296,186.528 228.664,185.664 C231.032,184.8 233.208,183.504 235.192,181.776 L235.192,181.776 L235.96,186 L247.096,186 L247.096,121.296 L234.136,121.296 L234.136,142.992 C230.616,140.688 226.36,139.536 221.368,139.536 C217.272,139.536 213.576,140.512 210.28,142.464 C206.984,144.416 204.36,147.28 202.408,151.056 C200.456,154.832 199.48,159.344 199.48,164.592 C199.48,172.4 201.352,178.08 205.096,181.632 C208.84,185.184 213.944,186.96 220.408,186.96 Z M223.96,177.456 C220.184,177.456 217.352,176.48 215.464,174.528 C213.576,172.576 212.632,169.264 212.632,164.592 C212.632,159.472 213.656,155.6 215.704,152.976 C217.752,150.352 220.76,149.04 224.728,149.04 C228.312,149.04 231.448,150.224 234.136,152.592 L234.136,152.592 L234.136,173.328 C232.664,174.8 231.128,175.856 229.528,176.496 C227.928,177.136 226.072,177.456 223.96,177.456 Z M65.932,258 L65.932,232.08 L92.908,232.08 L92.908,258 L105.868,258 L105.868,196.176 L92.908,196.176 L92.908,222.096 L65.932,222.096 L65.932,196.176 L52.972,196.176 L52.972,258 L65.932,258 Z M139.024,258.96 C145.872,258.96 151.408,258 155.632,256.08 L155.632,256.08 L155.632,246.864 C153.84,247.568 151.68,248.144 149.152,248.592 C146.624,249.04 144.144,249.264 141.712,249.264 C136.656,249.264 132.832,248.56 130.24,247.152 C127.648,245.744 126.032,243.28 125.392,239.76 L125.392,239.76 L158.32,239.76 L158.32,231.504 C158.32,225.424 156.416,220.576 152.608,216.96 C148.8,213.344 143.44,211.536 136.528,211.536 C128.976,211.536 123.232,213.616 119.296,217.776 C115.36,221.936 113.392,227.728 113.392,235.152 C113.392,243.024 115.648,248.96 120.16,252.96 C124.672,256.96 130.96,258.96 139.024,258.96 Z M146.992,231.792 L125.392,231.792 C125.392,227.888 126.256,225.088 127.984,223.392 C129.712,221.696 132.688,220.848 136.912,220.848 C143.632,220.848 146.992,223.664 146.992,229.296 L146.992,229.296 L146.992,231.792 Z M178.804,258 L178.804,226.224 C180.596,225.2 183.06,224.224 186.196,223.296 C189.332,222.368 192.276,221.712 195.028,221.328 L195.028,221.328 L195.028,211.536 C192.084,211.92 189.108,212.624 186.1,213.648 C183.092,214.672 180.532,215.856 178.42,217.2 L178.42,217.2 L177.844,212.496 L165.844,212.496 L165.844,258 L178.804,258 Z M219.064,258.96 C235.576,258.96 243.832,251.056 243.832,235.248 C243.832,227.568 241.784,221.696 237.688,217.632 C233.592,213.568 227.384,211.536 219.064,211.536 C210.744,211.536 204.552,213.568 200.488,217.632 C196.424,221.696 194.392,227.568 194.392,235.248 C194.392,251.056 202.616,258.96 219.064,258.96 Z M219.064,247.92 C214.904,247.92 211.944,246.96 210.184,245.04 C208.424,243.12 207.544,239.856 207.544,235.248 C207.544,230.64 208.424,227.376 210.184,225.456 C211.944,223.536 214.904,222.576 219.064,222.576 C223.288,222.576 226.28,223.536 228.04,225.456 C229.8,227.376 230.68,230.64 230.68,235.248 C230.68,239.856 229.8,243.12 228.04,245.04 C226.28,246.96 223.288,247.92 219.064,247.92 Z" id="NordHero" fill="#FFFFFF" fill-rule="nonzero"/>
            </g>
        </g>
    </g>
</svg>