<?xml version="1.0" encoding="UTF-8" standalone="no"?>
<svg
   width="257.47952"
   height="253.18901"
   version="1.1"
   id="svg1"
   xmlns="http://www.w3.org/2000/svg"
   xmlns:svg="http://www.w3.org/2000/svg">
  <defs
     id="defs1" />
  <path
     fill-rule="evenodd"
     clip-rule="evenodd"
     d="M 128.8463,0 C 57.597624,0 0,58.022242 0,129.80367 c 0,57.37872 36.904782,105.94862 88.101497,123.139 6.400905,1.29232 8.74553,-2.79296 8.74553,-6.22947 0,-3.00924 -0.210982,-13.32401 -0.210982,-24.07132 C 60.794122,230.37994 53.330351,207.1684 53.330351,207.1684 47.570325,192.12483 39.035782,188.25844 39.035782,188.25844 c -11.731042,-7.95169 0.854509,-7.95169 0.854509,-7.95169 13.012806,0.85979 19.840969,13.324 19.840969,13.324 11.517414,19.76979 30.07662,14.18382 37.543021,10.74467 1.065508,-8.38157 4.480909,-14.18378 8.107289,-17.40667 -28.586498,-3.00925 -58.663116,-14.1838 -58.663116,-64.04336 0,-14.1838 5.116506,-25.788249 13.223796,-34.813344 -1.279127,-3.222871 -5.760028,-16.549526 1.281764,-34.386089 0,0 10.87917,-3.439137 35.409386,13.324017 a 123.87748,123.87748 0 0 1 32.2129,-4.298921 c 10.87916,0 21.96933,1.505941 32.21026,4.298921 24.53286,-16.763154 35.41201,-13.324017 35.41201,-13.324017 7.04181,17.836563 2.55826,31.163218 1.27914,34.386089 8.3209,9.025095 13.22644,20.629544 13.22644,34.813344 0,49.85956 -30.07663,60.81785 -58.87675,64.04336 4.69452,4.08266 8.74553,11.81808 8.74553,24.06868 0,17.40667 -0.211,31.37685 -0.211,35.67314 0,3.43914 2.34727,7.52442 8.74554,6.23474 51.19672,-17.19566 88.10149,-65.76292 88.10149,-123.14164 C 257.68996,58.022242 199.88135,0 128.8463,0 Z"
     fill="#ffffff"
     id="path1"
     style="stroke-width:2.63737" />
</svg>
