<?xml version="1.0" encoding="UTF-8" standalone="no"?>
<svg xmlns:dc="http://purl.org/dc/elements/1.1/" xmlns:cc="http://creativecommons.org/ns#" xmlns:rdf="http://www.w3.org/1999/02/22-rdf-syntax-ns#" xmlns:svg="http://www.w3.org/2000/svg" xmlns="http://www.w3.org/2000/svg" xmlns:xlink="http://www.w3.org/1999/xlink" xmlns:sodipodi="http://sodipodi.sourceforge.net/DTD/sodipodi-0.dtd" xmlns:inkscape="http://www.inkscape.org/namespaces/inkscape" width="216" height="216" viewBox="0 0 216 216" version="1.1" id="svg" inkscape:version="0.92.3 (2405546, 2018-03-11)" sodipodi:docname="logo.svg" inkscape:export-filename="logo.png" inkscape:export-xdpi="480" inkscape:export-ydpi="480">
  <title id="title">Hacklab Jyväskylä Logo</title>
  <defs id="defs"/>
  <sodipodi:namedview id="base" pagecolor="#ffffff" bordercolor="#666666" borderopacity="1" inkscape:pageopacity="0" inkscape:pageshadow="2" inkscape:zoom="3" inkscape:cx="108" inkscape:cy="108" inkscape:document-units="px" inkscape:current-layer="layer" showgrid="true" units="px" inkscape:snap-global="true" inkscape:window-width="1200" inkscape:window-height="900" inkscape:window-x="0" inkscape:window-y="0" inkscape:window-maximized="1">
    <inkscape:grid type="xygrid" id="grid" empspacing="2" spacingx="4" spacingy="4"/>
  </sodipodi:namedview>
  <metadata id="metadata">
    <rdf:RDF>
      <cc:Work rdf:about="">
        <dc:format>image/svg+xml</dc:format>
        <dc:type rdf:resource="http://purl.org/dc/dcmitype/StillImage"/>
        <dc:title>Hacklab Jyväskylä Logo</dc:title>
        <cc:license rdf:resource="http://creativecommons.org/licenses/by-sa/4.0/"/>
        <dc:date>2021-12-31</dc:date>
        <dc:creator>
          <cc:Agent>
            <dc:title>Sampsa Kiiskinen</dc:title>
          </cc:Agent>
        </dc:creator>
        <dc:contributor>
          <cc:Agent>
            <dc:title>Members of Hacklab Jyväskylä</dc:title>
          </cc:Agent>
        </dc:contributor>
        <dc:description>This file was written by hand and previewed with Inkscape. The fractions in the source code are approximations of `4 * sqrt (2) - 5` and `6 - 4 * sqrt (2)`.</dc:description>
      </cc:Work>
      <cc:License rdf:about="http://creativecommons.org/licenses/by-sa/4.0/">
        <cc:permits rdf:resource="http://creativecommons.org/ns#Reproduction"/>
        <cc:permits rdf:resource="http://creativecommons.org/ns#Distribution"/>
        <cc:requires rdf:resource="http://creativecommons.org/ns#Notice"/>
        <cc:requires rdf:resource="http://creativecommons.org/ns#Attribution"/>
        <cc:permits rdf:resource="http://creativecommons.org/ns#DerivativeWorks"/>
        <cc:requires rdf:resource="http://creativecommons.org/ns#ShareAlike"/>
      </cc:License>
    </rdf:RDF>
  </metadata>
  <g inkscape:label="Layer" inkscape:groupmode="layer" id="layer">
    <g id="vectors">
      <path id="panel" d="M 4,188 H 212 V 28 H 4 Z" style="fill:#000000;fill-opacity:1;fill-rule:evenodd;stroke:none"/>
      <path id="frame" d="M 8,184 V 32 H 208 V 184 Z M 0,192 H 216 V 24 H 0 Z" style="fill:#1f3014;fill-opacity:1;fill-rule:evenodd;stroke:none"/>
      <g id="segments">
        <path id="row-0-column-0-segments" d="M 16,80 H 56 V 40 H 16 Z M 29.6568542494923806,72 36,65.6568542494923806 42.3431457505076194,72 Z M 48,66.3431457505076194 45.6568542494923806,64 H 48 Z M 48,56 H 45.6568542494923806 L 48,53.6568542494923806 Z M 42.3431457505076194,48 36,54.3431457505076194 29.6568542494923806,48 Z M 24,53.6568542494923806 26.3431457505076194,56 H 24 Z M 24,64 H 26.3431457505076194 L 24,66.3431457505076194 Z" style="fill:#1f3014;fill-opacity:1;fill-rule:evenodd;stroke:none"/>
        <path id="row-0-column-1-segments" d="M 64,80 H 104 V 40 H 64 Z M 77.6568542494923806,72 84,65.6568542494923806 90.3431457505076194,72 Z M 96,66.3431457505076194 93.6568542494923806,64 H 96 Z M 96,56 H 93.6568542494923806 L 96,53.6568542494923806 Z M 90.3431457505076194,48 84,54.3431457505076194 77.6568542494923806,48 Z M 72,53.6568542494923806 74.3431457505076194,56 H 72 Z M 72,64 H 74.3431457505076194 L 72,66.3431457505076194 Z" style="fill:#1f3014;fill-opacity:1;fill-rule:evenodd;stroke:none"/>
        <path id="row-0-column-2-segments" d="M 112,80 H 152 V 40 H 112 Z M 125.6568542494923806,72 132,65.6568542494923806 138.3431457505076194,72 Z M 144,66.3431457505076194 141.6568542494923806,64 H 144 Z M 144,56 H 141.6568542494923806 L 144,53.6568542494923806 Z M 138.3431457505076194,48 132,54.3431457505076194 125.6568542494923806,48 Z M 120,53.6568542494923806 122.3431457505076194,56 H 120 Z M 120,64 H 122.3431457505076194 L 120,66.3431457505076194 Z" style="fill:#1f3014;fill-opacity:1;fill-rule:evenodd;stroke:none"/>
        <path id="row-0-column-3-segments" d="M 160,80 H 200 V 40 H 160 Z M 173.6568542494923806,72 180,65.6568542494923806 186.3431457505076194,72 Z M 192,66.3431457505076194 189.6568542494923806,64 H 192 Z M 192,56 H 189.6568542494923806 L 192,53.6568542494923806 Z M 186.3431457505076194,48 180,54.3431457505076194 173.6568542494923806,48 Z M 168,53.6568542494923806 170.3431457505076194,56 H 168 Z M 168,64 H 170.3431457505076194 L 168,66.3431457505076194 Z" style="fill:#1f3014;fill-opacity:1;fill-rule:evenodd;stroke:none"/>
        <path id="row-1-column-0-segments" d="M 16,128 H 56 V 88 H 16 Z M 29.6568542494923806,120 36,113.6568542494923806 42.3431457505076194,120 Z M 48,114.3431457505076194 45.6568542494923806,112 H 48 Z M 48,104 H 45.6568542494923806 L 48,101.6568542494923806 Z M 42.3431457505076194,96 36,102.3431457505076194 29.6568542494923806,96 Z M 24,101.6568542494923806 26.3431457505076194,104 H 24 Z M 24,112 H 26.3431457505076194 L 24,114.3431457505076194 Z" style="fill:#1f3014;fill-opacity:1;fill-rule:evenodd;stroke:none"/>
        <path id="row-1-column-1-segments" d="M 64,128 H 104 V 88 H 64 Z M 77.6568542494923806,120 84,113.6568542494923806 90.3431457505076194,120 Z M 96,114.3431457505076194 93.6568542494923806,112 H 96 Z M 96,104 H 93.6568542494923806 L 96,101.6568542494923806 Z M 90.3431457505076194,96 84,102.3431457505076194 77.6568542494923806,96 Z M 72,101.6568542494923806 74.3431457505076194,104 H 72 Z M 72,112 H 74.3431457505076194 L 72,114.3431457505076194 Z" style="fill:#1f3014;fill-opacity:1;fill-rule:evenodd;stroke:none"/>
        <path id="row-1-column-2-segments" d="M 112,128 H 152 V 88 H 112 Z M 125.6568542494923806,120 132,113.6568542494923806 138.3431457505076194,120 Z M 144,114.3431457505076194 141.6568542494923806,112 H 144 Z M 144,104 H 141.6568542494923806 L 144,101.6568542494923806 Z M 138.3431457505076194,96 132,102.3431457505076194 125.6568542494923806,96 Z M 120,101.6568542494923806 122.3431457505076194,104 H 120 Z M 120,112 H 122.3431457505076194 L 120,114.3431457505076194 Z" style="fill:#1f3014;fill-opacity:1;fill-rule:evenodd;stroke:none"/>
        <path id="row-2-column-0-segments" d="M 16,176 H 56 V 136 H 16 Z M 29.6568542494923806,168 36,161.6568542494923806 42.3431457505076194,168 Z M 48,162.3431457505076194 45.6568542494923806,160 H 48 Z M 48,152 H 45.6568542494923806 L 48,149.6568542494923806 Z M 42.3431457505076194,144 36,150.3431457505076194 29.6568542494923806,144 Z M 24,149.6568542494923806 26.3431457505076194,152 H 24 Z M 24,160 H 26.3431457505076194 L 24,162.3431457505076194 Z" style="fill:#1f3014;fill-opacity:1;fill-rule:evenodd;stroke:none"/>
        <path id="row-2-column-1-segments" d="M 64,176 H 104 V 136 H 64 Z M 77.6568542494923806,168 84,161.6568542494923806 90.3431457505076194,168 Z M 96,162.3431457505076194 93.6568542494923806,160 H 96 Z M 96,152 H 93.6568542494923806 L 96,149.6568542494923806 Z M 90.3431457505076194,144 84,150.3431457505076194 77.6568542494923806,144 Z M 72,149.6568542494923806 74.3431457505076194,152 H 72 Z M 72,160 H 74.3431457505076194 L 72,162.3431457505076194 Z" style="fill:#1f3014;fill-opacity:1;fill-rule:evenodd;stroke:none"/>
        <path id="row-2-column-2-segments" d="M 112,176 H 152 V 136 H 112 Z M 125.6568542494923806,168 132,161.6568542494923806 138.3431457505076194,168 Z M 144,162.3431457505076194 141.6568542494923806,160 H 144 Z M 144,152 H 141.6568542494923806 L 144,149.6568542494923806 Z M 138.3431457505076194,144 132,150.3431457505076194 125.6568542494923806,144 Z M 120,149.6568542494923806 122.3431457505076194,152 H 120 Z M 120,160 H 122.3431457505076194 L 120,162.3431457505076194 Z" style="fill:#1f3014;fill-opacity:1;fill-rule:evenodd;stroke:none"/>
        <path id="row-1-column-3-subcolumn-0-segments" d="M 160,128 H 164 V 88 H 160 Z" style="fill:#1f3014;fill-opacity:1;fill-rule:evenodd;stroke:none"/>
        <path id="row-1-column-3-subcolumn-1-subrow-0-segments" d="M 172,88 V 104 H 200 V 88 Z M 176,92 H 184 V 100 H 176 Z M 188,92 H 196 V 100 H 188 Z" style="fill:#1f3014;fill-opacity:1;fill-rule:evenodd;stroke:none"/>
        <path id="row-1-column-3-subcolumn-1-subrow-1-segments" d="M 172,112 V 128 H 200 V 112 Z M 176,116 H 184 V 124 H 176 Z M 188,116 H 196 V 124 H 188 Z" style="fill:#1f3014;fill-opacity:1;fill-rule:evenodd;stroke:none"/>
        <path id="row-2-column-3-subcolumn-0-segments" d="M 160,176 H 164 V 136 H 160 Z" style="fill:#1f3014;fill-opacity:1;fill-rule:evenodd;stroke:none"/>
        <path id="row-2-column-3-subcolumn-1-subrow-0-segments" d="M 172,136 V 152 H 200 V 136 Z M 176,140 H 184 V 148 H 176 Z M 188,140 H 196 V 148 H 188 Z" style="fill:#1f3014;fill-opacity:1;fill-rule:evenodd;stroke:none"/>
        <path id="row-2-column-3-subcolumn-1-subrow-1-segments" d="M 172,160 V 176 H 200 V 160 Z M 176,164 H 184 V 172 H 176 Z M 188,164 H 196 V 172 H 188 Z" style="fill:#1f3014;fill-opacity:1;fill-rule:evenodd;stroke:none"/>
      </g>
      <g id="lights">
        <path id="row-0-column-0" d="M 16,80 H 24 V 64 H 48 V 80 H 56 V 40 H 48 V 56 H 24 V 40 H 16 Z" style="fill:#91c270;fill-opacity:1;fill-rule:evenodd;stroke:none"/>
        <path id="row-0-column-1" d="M 64,80 H 72 V 64 H 96 V 80 H 104 V 40 H 64 Z M 72,56 V 48 H 96 V 56 Z" style="fill:#daebcf;fill-opacity:1;fill-rule:evenodd;stroke:none"/>
        <path id="row-0-column-2" d="M 112,80 H 152 V 72 H 120 V 48 H 152 V 40 H 112 Z" style="fill:#91c270;fill-opacity:1;fill-rule:evenodd;stroke:none"/>
        <path id="row-0-column-3" d="M 160,80 H 168 V 77.6568542494923806 L 180,65.6568542494923806 194.3431457505076194,80 H 200 V 74.3431457505076194 L 185.6568542494923806,60 200,45.6568542494923806 V 40 H 194.3431457505076194 L 168,66.3431457505076194 V 40 H 160 Z" style="fill:#91c270;fill-opacity:1;fill-rule:evenodd;stroke:none"/>
        <path id="row-1-column-0" d="M 16,128 H 56 V 120 H 24 V 88 H 16 Z" style="fill:#91c270;fill-opacity:1;fill-rule:evenodd;stroke:none"/>
        <path id="row-1-column-1" d="M 64,128 H 72 V 112 H 96 V 128 H 104 V 88 H 64 Z M 72,104 V 96 H 96 V 104 Z" style="fill:#91c270;fill-opacity:1;fill-rule:evenodd;stroke:none"/>
        <path id="row-1-column-2" d="M 112,128 H 152 V 88 H 112 Z M 120,120 V 112 H 144 V 120 Z M 120,104 V 96 H 144 V 104 Z" style="fill:#daebcf;fill-opacity:1;fill-rule:evenodd;stroke:none"/>
        <path id="row-2-column-0" d="M 16,176 H 56 V 136 H 48 V 168 H 16 Z" style="fill:#daebcf;fill-opacity:1;fill-rule:evenodd;stroke:none"/>
        <path id="row-2-column-1" d="M 64,176 H 72 V 173.6568542494923806 L 84,161.6568542494923806 98.3431457505076194,176 H 104 V 170.3431457505076194 L 89.6568542494923806,156 104,141.6568542494923806 V 136 H 98.3431457505076194 L 72,162.3431457505076194 V 136 H 64 Z" style="fill:#daebcf;fill-opacity:1;fill-rule:evenodd;stroke:none"/>
        <path id="row-2-column-2" d="M 112,176 H 152 V 168 H 120 V 136 H 112 Z" style="fill:#daebcf;fill-opacity:1;fill-rule:evenodd;stroke:none"/>
        <path id="row-1-column-3-subcolumn-0" d="M 160,128 H 164 V 88 H 160 Z" style="fill:#91c270;fill-opacity:1;fill-rule:evenodd;stroke:none"/>
        <path id="row-1-column-3-subcolumn-1-subrow-0" d="M 172,104 H 200 V 88 H 172 Z M 176,100 V 92 H 196 V 100 Z" style="fill:#91c270;fill-opacity:1;fill-rule:evenodd;stroke:none"/>
        <path id="row-1-column-3-subcolumn-1-subrow-1" d="M 172,128 H 200 V 112 H 196 V 124 H 172 Z" style="fill:#91c270;fill-opacity:1;fill-rule:evenodd;stroke:none"/>
        <path id="row-2-column-3-subcolumn-0" d="M 160,176 H 164 V 136 H 160 Z" style="fill:#91c270;fill-opacity:1;fill-rule:evenodd;stroke:none"/>
        <path id="row-2-column-3-subcolumn-1-subrow-0" d="M 172,152 H 200 V 148 H 188 V 136 H 172 Z M 176,148 V 140 H 184 V 148 Z" style="fill:#91c270;fill-opacity:1;fill-rule:evenodd;stroke:none"/>
        <path id="row-2-column-3-subcolumn-1-subrow-1" d="M 172,176 H 188 V 164 H 200 V 160 H 172 Z M 176,172 V 164 H 184 V 172 Z" style="fill:#91c270;fill-opacity:1;fill-rule:evenodd;stroke:none"/>
      </g>
    </g>
  </g>
</svg>