<?xml version="1.0" encoding="UTF-8" standalone="no"?>
<!-- Created with Inkscape (http://www.inkscape.org/) -->

<svg
   width="795.05084mm"
   height="134.39929mm"
   id="svg3054"
   version="1.1"
   xmlns="http://www.w3.org/2000/svg"
   xmlns:svg="http://www.w3.org/2000/svg"
   xmlns:rdf="http://www.w3.org/1999/02/22-rdf-syntax-ns#"
   xmlns:cc="http://creativecommons.org/ns#"
   xmlns:dc="http://purl.org/dc/elements/1.1/">
  <defs
     id="defs3" />
  <metadata
     id="metadata4">
    <rdf:RDF>
      <cc:Work
         rdf:about="">
        <dc:format>image/svg+xml</dc:format>
        <dc:type
           rdf:resource="http://purl.org/dc/dcmitype/StillImage" />
      </cc:Work>
    </rdf:RDF>
  </metadata>
  <g
     id="layer1"
     transform="translate(-1.4282491,1.1670322)">
    <g
       transform="matrix(3.2223986,0,0,3.2223986,-891.26428,-1445.6547)"
       id="g3047"
       style="display:inline">
      <path
         transform="matrix(0.983666,0,0,1.09418,-10.5751,-62.0301)"
         id="path1349"
         d="m 416.38515,577.40034 c -11.10739,10.10178 -26.44908,16.3526 -43.38631,16.3526 -33.87446,0 -61.36677,-25.00329 -61.36677,-55.81092 0,-30.80764 27.49231,-55.81093 61.36677,-55.81093 16.93723,0 32.27892,6.25082 43.38631,16.3526 l -42.61601,39.45813 z"
         style="fill:#035cff;fill-opacity:1;fill-rule:evenodd;stroke:#00006d;stroke-width:1.69825;stroke-linecap:butt;stroke-linejoin:miter;stroke-miterlimit:4;stroke-dasharray:none;stroke-opacity:1" />
      <ellipse
         transform="matrix(1.2179,0,0,1.14616,-84.9689,-78.9538)"
         id="path2825"
         style="fill:#035cff;fill-opacity:1;stroke:#00006d;stroke-width:1.36971;stroke-miterlimit:4;stroke-dasharray:none;stroke-opacity:1"
         cx="401.53564"
         cy="528.09302"
         rx="11.111678"
         ry="11.616755" />
      <ellipse
         transform="matrix(-0.704605,-0.413973,0.451739,-0.768884,374.751,1080.08)"
         id="path3795"
         style="fill:none;stroke:none"
         cx="362.64478"
         cy="524.30493"
         rx="84.852814"
         ry="78.53936" />
      <ellipse
         transform="matrix(-0.76837,0.514881,0.563461,0.835267,339.046,-97.5708)"
         id="path3797"
         style="fill:none;stroke:none"
         cx="362.64478"
         cy="524.30493"
         rx="84.852814"
         ry="78.53936" />
    </g>
    <g
       id="text1"
       style="font-weight:bold;font-size:192px;font-family:Sans;-inkscape-font-specification:'Sans Bold';letter-spacing:0px;white-space:pre"
       transform="translate(36.612249,-5.5346586)"
       aria-label="LINKKI JYVÄSKYLÄ RY">
      <path
         d="M 604.51367,324.81781 H 503.82617 V 185.22406 h 36 v 112.59375 h 64.6875 z m 97.125,0 h -81.75 v -24.75 h 22.875 v -90.09375 h -22.875 v -24.75 h 81.75 v 24.75 h -22.875 v 90.09375 h 22.875 z m 156.28125,0 h -34.6875 l -59.25,-95.8125 v 95.8125 h -33 V 185.22406 h 43.03125 l 50.90625,79.96875 v -79.96875 h 33 z m 165.93748,0 h -44.15623 l -41.71875,-55.875 -8.4375,10.21875 v 45.65625 h -36 V 185.22406 h 36 v 63.1875 l 49.875,-63.1875 h 41.71878 l -54.56253,64.59375 z m 148.0313,0 h -44.1563 l -41.7187,-55.875 -8.4375,10.21875 v 45.65625 h -36 V 185.22406 h 36 v 63.1875 l 49.875,-63.1875 h 41.7187 l -54.5625,64.59375 z m 93.1875,0 h -81.75 v -24.75 h 22.875 v -90.09375 h -22.875 v -24.75 h 81.75 v 24.75 h -22.875 v 90.09375 h 22.875 z"
         id="path3" />
      <path
         d="m 1452.7949,283.84906 q 0,9.1875 -3.2812,17.25 -3.2813,7.96875 -9.75,13.5 -6.8438,5.90625 -16.5,9.1875 -9.6563,3.1875 -23.9063,3.1875 -9.6562,0 -18.1875,-0.75 -8.5312,-0.65625 -15,-1.96875 v -28.3125 h 3.375 q 4.5,1.6875 9.375,3.1875 4.875,1.40625 12.4688,1.40625 9.8437,0 15.0937,-2.625 5.3438,-2.625 7.5938,-7.3125 2.1562,-4.59375 2.4375,-10.03125 0.2812,-5.53125 0.2812,-14.0625 v -55.59375 h -31.9687 v -25.6875 h 67.9687 z m 156.6563,-98.625 -51.4688,85.59375 v 54 h -36 v -52.3125 l -52.3125,-87.28125 h 40.875 l 30.1875,54 29.1563,-54 z m 145.2187,0 -50.9062,139.59375 h -40.3125 l -50.9063,-139.59375 h 37.7813 l 33.75,98.0625 33.75,-98.0625 z m 149.0625,139.59375 h -37.2187 l -9.6563,-28.21875 h -51.75 l -9.6562,28.21875 h -36.2813 l 51.5625,-139.59375 h 41.4375 z m -55.5937,-53.8125 -17.1563,-50.0625 -17.1562,50.0625 z m 22.5937,-101.4375 h -27.8437 v -25.59375 h 27.8437 z m -50.3437,0 h -27.8438 v -25.59375 h 27.8438 z m 215.1562,111.375 q 0,20.625 -17.5312,33.5625 -17.4375,12.84375 -47.4375,12.84375 -17.3438,0 -30.2813,-3 -12.8437,-3.09375 -24.0937,-7.78125 v -33.46875 h 3.9375 q 11.1562,8.90625 24.9375,13.6875 13.875,4.78125 26.625,4.78125 3.2812,0 8.625,-0.5625 5.3437,-0.5625 8.7187,-1.875 4.125,-1.6875 6.75,-4.21875 2.7188,-2.53125 2.7188,-7.5 0,-4.59375 -3.9375,-7.875 -3.8438,-3.375 -11.3438,-5.15625 -7.875,-1.875 -16.6875,-3.46875 -8.7187,-1.6875 -16.4062,-4.21875 -17.625,-5.71875 -25.4063,-15.46875 -7.6875,-9.84375 -7.6875,-24.375 0,-19.5 17.4375,-31.78125 17.5313,-12.375 45,-12.375 13.7813,0 27.1875,2.71875 13.5,2.625 23.3438,6.65625 v 32.15625 h -3.8438 q -8.4375,-6.75 -20.7187,-11.25 -12.1875,-4.59375 -24.9375,-4.59375 -4.5,0 -9,0.65625 -4.4063,0.5625 -8.5313,2.25 -3.6562,1.40625 -6.2812,4.3125 -2.625,2.8125 -2.625,6.46875 0,5.53125 4.2187,8.53125 4.2188,2.90625 15.9375,5.34375 7.6875,1.59375 14.7188,3.09375 7.125,1.5 15.2812,4.125 16.0313,5.25 23.625,14.34375 7.6875,9 7.6875,23.4375 z m 154.9688,43.875 h -44.1563 l -41.7187,-55.875 -8.4375,10.21875 v 45.65625 h -36 V 185.22406 h 36 v 63.1875 l 49.875,-63.1875 h 41.7187 l -54.5625,64.59375 z m 140.5312,-139.59375 -51.4687,85.59375 v 54 h -36 v -52.3125 l -52.3125,-87.28125 h 40.875 l 30.1875,54 29.1562,-54 z m 119.3438,139.59375 H 2349.7012 V 185.22406 h 36 v 112.59375 h 64.6875 z m 150.6562,0 h -37.2187 l -9.6563,-28.21875 h -51.75 l -9.6562,28.21875 h -36.2813 l 51.5625,-139.59375 h 41.4375 z m -55.5937,-53.8125 -17.1563,-50.0625 -17.1562,50.0625 z m 22.5937,-101.4375 h -27.8437 v -25.59375 h 27.8437 z m -50.3437,0 h -27.8438 v -25.59375 h 27.8438 z"
         id="path4" />
      <path
         d="m 2775.0137,227.97406 q 0,-5.25 -2.1563,-9 -2.1562,-3.75 -7.4062,-5.90625 -3.6563,-1.5 -8.5313,-1.78125 -4.875,-0.375 -11.3437,-0.375 h -13.0313 v 37.59375 h 11.0625 q 8.625,0 14.4375,-0.84375 5.8125,-0.84375 9.75,-3.84375 3.75,-2.90625 5.4375,-6.375 1.7813,-3.5625 1.7813,-9.46875 z m 56.1562,96.84375 h -43.9687 l -38.0625,-51.1875 h -16.5938 v 51.1875 h -35.8125 V 185.22406 h 60.375 q 12.375,0 21.2813,1.40625 8.9062,1.40625 16.6875,6.09375 7.875,4.6875 12.4687,12.1875 4.6875,7.40625 4.6875,18.65625 0,15.46875 -7.2187,25.21875 -7.125,9.75 -20.4375,16.21875 z m 138.5625,-139.59375 -51.4687,85.59375 v 54 h -36 v -52.3125 l -52.3125,-87.28125 h 40.875 l 30.1875,54 29.1562,-54 z"
         id="path5" />
    </g>
  </g>
</svg>
