<?xml version="1.0" encoding="UTF-8" standalone="no"?>
<!-- Created with Inkscape (http://www.inkscape.org/) -->
<svg
   width="795.05084mm"
   height="134.39931mm"
   id="svg3054"
   version="1.1"
   xml:space="preserve"
   xmlns:xlink="http://www.w3.org/1999/xlink"
   xmlns="http://www.w3.org/2000/svg"
   xmlns:svg="http://www.w3.org/2000/svg"
   xmlns:rdf="http://www.w3.org/1999/02/22-rdf-syntax-ns#"
   xmlns:cc="http://creativecommons.org/ns#"
   xmlns:dc="http://purl.org/dc/elements/1.1/">
   <defs
   id="defs3">
      <linearGradient
     id="linearGradient4">
         <stop
       style="stop-color:#e50000;stop-opacity:1;"
       offset="0"
       id="stop5" />
         <stop
       style="stop-color:#ff8d00;stop-opacity:1;"
       offset="0.2"
       id="stop7" />
         <stop
       style="stop-color:#ffee00;stop-opacity:1;"
       offset="0.40000001"
       id="stop8" />
         <stop
       style="stop-color:#028121;stop-opacity:1;"
       offset="0.60000002"
       id="stop9" />
         <stop
       style="stop-color:#004cff;stop-opacity:1;"
       offset="0.80000001"
       id="stop10" />
         <stop
       style="stop-color:#770088;stop-opacity:1;"
       offset="1"
       id="stop6" />
      </linearGradient>
      <linearGradient
     xlink:href="#linearGradient4"
     id="linearGradient6"
     x1="116.94821"
     y1="449.64157"
     x2="361.92075"
     y2="202.7935"
     gradientUnits="userSpaceOnUse" />
      <linearGradient
     xlink:href="#linearGradient4"
     id="linearGradient12"
     x1="117.0155"
     y1="444.98773"
     x2="366.96155"
     y2="194.59148"
     gradientUnits="userSpaceOnUse"
     gradientTransform="translate(-0.80451111,-0.93474267)" />
   </defs>
   <metadata
   id="metadata4">
      <rdf:RDF>
         <cc:Work
   rdf:about="">
            <dc:format>image/svg+xml</dc:format>
            <dc:type
   rdf:resource="http://purl.org/dc/dcmitype/StillImage" />
         </cc:Work>
      </rdf:RDF>
   </metadata>
   <g
   id="layer1"
   transform="translate(-1.4282491,1.1670319)">
      <g
   transform="matrix(3.2223986,0,0,3.2223986,-891.26428,-1445.6547)"
   id="g3047"
   style="display:inline">
         <path
   transform="matrix(0.983666,0,0,1.09418,-10.5751,-62.0301)"
   id="path1349"
   d="m 416.38515,577.40034 c -11.10739,10.10178 -26.44908,16.3526 -43.38631,16.3526 -33.87446,0 -61.36677,-25.00329 -61.36677,-55.81092 0,-30.80764 27.49231,-55.81093 61.36677,-55.81093 16.93723,0 32.27892,6.25082 43.38631,16.3526 l -42.61601,39.45813 z"
   style="display:inline;fill:#035cff;fill-opacity:1;fill-rule:evenodd;stroke:#00006d;stroke-width:1.69825;stroke-linecap:butt;stroke-linejoin:miter;stroke-miterlimit:4;stroke-dasharray:none;stroke-opacity:1" />
         <ellipse
   transform="matrix(1.2179,0,0,1.14616,-84.9689,-78.9538)"
   id="path2825"
   style="display:inline;fill:#035cff;fill-opacity:1;stroke:#00006d;stroke-width:1.36971;stroke-miterlimit:4;stroke-dasharray:none;stroke-opacity:1"
   cx="401.53564"
   cy="528.09302"
   rx="11.111678"
   ry="11.616755" />
         <ellipse
   transform="matrix(-0.704605,-0.413973,0.451739,-0.768884,374.751,1080.08)"
   id="path3795"
   style="display:inline;fill:none;stroke:none"
   cx="362.64478"
   cy="524.30493"
   rx="84.852814"
   ry="78.53936" />
         <ellipse
   transform="matrix(-0.76837,0.514881,0.563461,0.835267,339.046,-97.5708)"
   id="path3797"
   style="display:inline;fill:none;stroke:none"
   cx="362.64478"
   cy="524.30493"
   rx="84.852814"
   ry="78.53936" />
      </g>
      <style
   id="style1">
      @media (prefers-color-scheme: dark) {
         #text1 {
            fill: #ddd;
         }
      }
    </style>
      <g
   id="text1"
   style="font-weight:bold;font-size:192px;font-family:Sans;-inkscape-font-specification:'Sans Bold';letter-spacing:0px;white-space:pre"
   transform="translate(36.612249,-5.5346586)"
   aria-label="LINKKI JYVÄSKYLÄ RY">
         <path
   d="M 604.51367,324.81781 H 503.82617 V 185.22406 h 36 v 112.59375 h 64.6875 z m 97.125,0 h -81.75 v -24.75 h 22.875 v -90.09375 h -22.875 v -24.75 h 81.75 v 24.75 h -22.875 v 90.09375 h 22.875 z m 156.28125,0 h -34.6875 l -59.25,-95.8125 v 95.8125 h -33 V 185.22406 h 43.03125 l 50.90625,79.96875 v -79.96875 h 33 z m 165.93748,0 h -44.15623 l -41.71875,-55.875 -8.4375,10.21875 v 45.65625 h -36 V 185.22406 h 36 v 63.1875 l 49.875,-63.1875 h 41.71878 l -54.56253,64.59375 z m 148.0313,0 h -44.1563 l -41.7187,-55.875 -8.4375,10.21875 v 45.65625 h -36 V 185.22406 h 36 v 63.1875 l 49.875,-63.1875 h 41.7187 l -54.5625,64.59375 z m 93.1875,0 h -81.75 v -24.75 h 22.875 v -90.09375 h -22.875 v -24.75 h 81.75 v 24.75 h -22.875 v 90.09375 h 22.875 z"
   id="path3" />
         <path
   d="m 1452.7949,283.84906 q 0,9.1875 -3.2812,17.25 -3.2813,7.96875 -9.75,13.5 -6.8438,5.90625 -16.5,9.1875 -9.6563,3.1875 -23.9063,3.1875 -9.6562,0 -18.1875,-0.75 -8.5312,-0.65625 -15,-1.96875 v -28.3125 h 3.375 q 4.5,1.6875 9.375,3.1875 4.875,1.40625 12.4688,1.40625 9.8437,0 15.0937,-2.625 5.3438,-2.625 7.5938,-7.3125 2.1562,-4.59375 2.4375,-10.03125 0.2812,-5.53125 0.2812,-14.0625 v -55.59375 h -31.9687 v -25.6875 h 67.9687 z m 156.6563,-98.625 -51.4688,85.59375 v 54 h -36 v -52.3125 l -52.3125,-87.28125 h 40.875 l 30.1875,54 29.1563,-54 z m 145.2187,0 -50.9062,139.59375 h -40.3125 l -50.9063,-139.59375 h 37.7813 l 33.75,98.0625 33.75,-98.0625 z m 149.0625,139.59375 h -37.2187 l -9.6563,-28.21875 h -51.75 l -9.6562,28.21875 h -36.2813 l 51.5625,-139.59375 h 41.4375 z m -55.5937,-53.8125 -17.1563,-50.0625 -17.1562,50.0625 z m 22.5937,-101.4375 h -27.8437 v -25.59375 h 27.8437 z m -50.3437,0 h -27.8438 v -25.59375 h 27.8438 z m 215.1562,111.375 q 0,20.625 -17.5312,33.5625 -17.4375,12.84375 -47.4375,12.84375 -17.3438,0 -30.2813,-3 -12.8437,-3.09375 -24.0937,-7.78125 v -33.46875 h 3.9375 q 11.1562,8.90625 24.9375,13.6875 13.875,4.78125 26.625,4.78125 3.2812,0 8.625,-0.5625 5.3437,-0.5625 8.7187,-1.875 4.125,-1.6875 6.75,-4.21875 2.7188,-2.53125 2.7188,-7.5 0,-4.59375 -3.9375,-7.875 -3.8438,-3.375 -11.3438,-5.15625 -7.875,-1.875 -16.6875,-3.46875 -8.7187,-1.6875 -16.4062,-4.21875 -17.625,-5.71875 -25.4063,-15.46875 -7.6875,-9.84375 -7.6875,-24.375 0,-19.5 17.4375,-31.78125 17.5313,-12.375 45,-12.375 13.7813,0 27.1875,2.71875 13.5,2.625 23.3438,6.65625 v 32.15625 h -3.8438 q -8.4375,-6.75 -20.7187,-11.25 -12.1875,-4.59375 -24.9375,-4.59375 -4.5,0 -9,0.65625 -4.4063,0.5625 -8.5313,2.25 -3.6562,1.40625 -6.2812,4.3125 -2.625,2.8125 -2.625,6.46875 0,5.53125 4.2187,8.53125 4.2188,2.90625 15.9375,5.34375 7.6875,1.59375 14.7188,3.09375 7.125,1.5 15.2812,4.125 16.0313,5.25 23.625,14.34375 7.6875,9 7.6875,23.4375 z m 154.9688,43.875 h -44.1563 l -41.7187,-55.875 -8.4375,10.21875 v 45.65625 h -36 V 185.22406 h 36 v 63.1875 l 49.875,-63.1875 h 41.7187 l -54.5625,64.59375 z m 140.5312,-139.59375 -51.4687,85.59375 v 54 h -36 v -52.3125 l -52.3125,-87.28125 h 40.875 l 30.1875,54 29.1562,-54 z m 119.3438,139.59375 H 2349.7012 V 185.22406 h 36 v 112.59375 h 64.6875 z m 150.6562,0 h -37.2187 l -9.6563,-28.21875 h -51.75 l -9.6562,28.21875 h -36.2813 l 51.5625,-139.59375 h 41.4375 z m -55.5937,-53.8125 -17.1563,-50.0625 -17.1562,50.0625 z m 22.5937,-101.4375 h -27.8437 v -25.59375 h 27.8437 z m -50.3437,0 h -27.8438 v -25.59375 h 27.8438 z"
   id="path4" />
         <path
   d="m 2775.0137,227.97406 q 0,-5.25 -2.1563,-9 -2.1562,-3.75 -7.4062,-5.90625 -3.6563,-1.5 -8.5313,-1.78125 -4.875,-0.375 -11.3437,-0.375 h -13.0313 v 37.59375 h 11.0625 q 8.625,0 14.4375,-0.84375 5.8125,-0.84375 9.75,-3.84375 3.75,-2.90625 5.4375,-6.375 1.7813,-3.5625 1.7813,-9.46875 z m 56.1562,96.84375 h -43.9687 l -38.0625,-51.1875 h -16.5938 v 51.1875 h -35.8125 V 185.22406 h 60.375 q 12.375,0 21.2813,1.40625 8.9062,1.40625 16.6875,6.09375 7.875,4.6875 12.4687,12.1875 4.6875,7.40625 4.6875,18.65625 0,15.46875 -7.2187,25.21875 -7.125,9.75 -20.4375,16.21875 z m 138.5625,-139.59375 -51.4687,85.59375 v 54 h -36 v -52.3125 l -52.3125,-87.28125 h 40.875 l 30.1875,54 29.1562,-54 z"
   id="path5" />
      </g>
   </g>
   <g
   id="layer1-7"
   transform="matrix(2.9655594,-0.42496388,0.34323707,2.6378291,-69.503451,-156.7155)"
   style="display:none">
      <ellipse
   style="display:inline;fill:#ffe680;stroke:#f9f9f9;stroke-width:0.264583"
   id="path3-5"
   cx="122.16453"
   cy="101.3186"
   rx="5.8774824"
   ry="5.444057" />
      <path
   style="fill:#070707;fill-opacity:1;stroke:none"
   d="m 34.219801,106.688 c 0.701544,3.40072 0.922291,6.86848 1.309646,10.31875 0.134827,1.20094 0.05718,3.20511 1.145303,3.98507 1.988513,1.42537 6.386036,0.42749 8.657551,0.27194 7.721347,-0.52875 15.554185,-1.62081 23.283332,-1.86433 2.305189,-0.0726 4.473233,1.30065 6.614583,2.01704 3.727518,1.24705 7.535651,2.12604 11.377083,2.94288 12.3039,2.6163 24.227611,3.75989 36.777081,3.75989 7.39675,0 16.02816,-1.07008 22.48958,-4.92234 3.67828,-2.19297 6.88722,-5.37617 5.48222,-9.80844 0,0 -0.29927,-0.76616 -0.76361,-1.56576 -0.77005,-1.50477 -3.19142,-5.24693 -3.19142,-5.24693 1.75216,-0.64859 1.23912,-2.00539 0.82241,-3.85652 -0.75505,-3.354184 -2.64843,-7.695771 -2.08501,-11.112504 -10.58407,0 -20.7499,2.116772 -31.22083,3.130082 -15.727315,1.521992 -31.410393,3.199546 -47.095837,5.262065 -6.976399,0.917347 -13.95981,1.975477 -20.902082,3.140097 -4.273278,0.71687 -8.899885,1.33938 -12.7,3.54901 m 90.222919,-9.525004 c 0.71588,-0.755736 1.49729,0.943571 1.70264,1.5875 0.55831,1.750714 0.67175,4.003054 -0.5304,5.519504 -1.94578,2.4545 -5.7434,1.83987 -6.81424,-1.02159 -0.84442,-2.25644 0.0262,-4.026908 0.8795,-6.085414 l 1.05833,0.264583 c 0.87277,-1.384694 2.47703,-0.971339 3.70417,-0.264583 m -3.70417,1.058333 c -0.7118,1.909651 -1.52914,4.547411 1.05833,5.291671 -0.87448,-2.3207 -1.38884,-2.70752 -0.52916,-5.291671 h -0.52917 m 2.64583,0 c 0.59927,2.196341 0.60292,2.919401 -0.26458,5.027081 2.03623,-0.65963 1.87874,-3.960487 0.26458,-5.027081 m -2.11666,1.5875 v 0 m 1.85208,0 v 0 m 23.8125,7.937501 v 0 m 2.29306,3.88055 0.97758,0.0415 z"
   id="path1" />
      <path
   style="display:inline;fill:#f9f9f9;stroke:#000000;stroke-width:1.165;stroke-dasharray:none;stroke-opacity:1"
   d="m 33.923914,107.54159 c -1.155255,0.18267 -2.116042,-0.29611 -1.95109,-6.15376 -1.176789,-7.456872 -4.138066,-11.733063 -3.944106,-13.856492 -0.154002,-3.053672 1.885674,-6.374545 1.885674,-6.374545 4.068868,-6.252462 18.944063,-9.254011 18.944063,-9.254011 12.441314,-3.308442 33.727133,-7.579632 33.727133,-7.579632 0,0 14.63299,-1.999467 30.993372,-3.680751 9.03725,-0.800608 16.09718,-0.544254 16.09718,-0.544254 7.67339,0.616387 18.84391,4.192289 18.84391,4.192289 3.18854,1.546833 3.04881,5.142293 3.04881,5.142293 0.22171,1.699332 -0.80728,6.065243 -0.80728,6.065243 0,0 -2.49953,2.924253 -2.90618,6.497624 0.10299,1.21533 0,6.686491 0,6.686491 l -0.41382,2.388633 -1.40368,1.062031 c 0,0 -3.52906,1.720159 -6.83315,1.798637 -5.0364,0.343196 -16.51138,0.833936 -16.51138,0.833936 l -64.296692,7.042428 z"
   id="path2" />
      <path
   style="fill:#070707;fill-opacity:0;stroke:#e8e8e8;stroke-width:1.165;stroke-dasharray:none;stroke-opacity:1"
   d="m 122.71588,68.782898 c 0,0 1.46003,21.847363 -1.0815,26.821303"
   id="path4-3" />
      <path
   style="fill:#070707;fill-opacity:0;stroke:#e8e8e8;stroke-width:1.165;stroke-dasharray:none;stroke-opacity:1"
   d="M 30.860635,80.046849 C 81.339046,77.265716 147.8904,64.095522 147.8904,64.095522"
   id="path6" />
      <path
   style="display:inline;fill:#000000;fill-opacity:0;stroke:#000000;stroke-width:1.165;stroke-dasharray:none;stroke-opacity:1"
   d="m 33.923914,107.54159 c -1.155255,0.18267 -2.116042,-0.29611 -1.95109,-6.15376 -1.176789,-7.456872 -4.138066,-11.733063 -3.944106,-13.856492 -0.154002,-3.053672 1.885674,-6.374545 1.885674,-6.374545 4.068868,-6.252462 18.944063,-9.254011 18.944063,-9.254011 12.441314,-3.308442 33.727133,-7.579632 33.727133,-7.579632 0,0 14.63299,-1.999467 30.993372,-3.680751 9.03725,-0.800608 16.09718,-0.544254 16.09718,-0.544254 7.67339,0.616387 18.84391,4.192289 18.84391,4.192289 3.18854,1.546833 3.04881,5.142293 3.04881,5.142293 0.22171,1.699332 -0.80728,6.065243 -0.80728,6.065243 0,0 -2.49953,2.924253 -2.90618,6.497624 0.10299,1.21533 0,6.686491 0,6.686491 l -0.41382,2.388633 -1.40368,1.062031 c 0,0 -3.52906,1.720159 -6.83315,1.798637 -5.0364,0.343196 -16.51138,0.833936 -16.51138,0.833936 l -64.296692,7.042428 z"
   id="path5-5" />
   </g>
   <g
   id="layer2"
   style="display:none"
   transform="translate(-4.842741e-8,-55.200756)">
      <path
     id="path1349-6"
     d="m 393.06849,446.64112 c -35.2078,35.6177 -83.8373,57.65737 -137.5243,57.65737 -107.3741,0 -194.518197,-88.1587 -194.518197,-196.78283 0,-108.62417 87.144097,-196.78287 194.518197,-196.78287 53.687,0 102.3165,22.03966 137.5243,57.65737 l -135.0827,139.12479 z"
     style="display:inline;mix-blend-mode:normal;fill:url(#linearGradient6);fill-rule:evenodd;stroke:#00006d;stroke-width:5.67685;stroke-linecap:butt;stroke-linejoin:miter;stroke-miterlimit:4;stroke-dasharray:none;stroke-opacity:1" />
      <ellipse
     id="path2825-5"
     style="display:inline;opacity:1;fill:url(#linearGradient12);stroke:#00006d;stroke-width:5.21478;stroke-miterlimit:4;stroke-dasharray:none;stroke-opacity:1"
     cx="409.56079"
     cy="306.59058"
     rx="43.60844"
     ry="42.90514" />
   </g>
   <script
   type="text/javascript"
   id="script1"><![CDATA[

const date = new Date();

// Ylioppilaslakki
if (date.getMonth() == 3 && date.getDate() > 30 - 2 * 7 || date.getMonth() == 4 && date.getDate() == 1) {
   document.querySelector("#layer1-7").style = "";
}

// Pride month
if (date.getMonth() == 5) {
   document.querySelector("#layer2").style = "display:inline";
}

   ]]></script>
</svg>