<?xml version="1.0" encoding="UTF-8" standalone="no"?>
<!-- Created with Inkscape (http://www.inkscape.org/) -->

<svg
   width="71.70343mm"
   height="71.575363mm"
   id="svg3054"
   version="1.1"
   xmlns="http://www.w3.org/2000/svg"
   xmlns:svg="http://www.w3.org/2000/svg"
   xmlns:rdf="http://www.w3.org/1999/02/22-rdf-syntax-ns#"
   xmlns:cc="http://creativecommons.org/ns#"
   xmlns:dc="http://purl.org/dc/elements/1.1/">
  <defs
     id="defs3" />
  <metadata
     id="metadata4">
    <rdf:RDF>
      <cc:Work
         rdf:about="">
        <dc:format>image/svg+xml</dc:format>
        <dc:type
           rdf:resource="http://purl.org/dc/dcmitype/StillImage" />
        <dc:title />
      </cc:Work>
    </rdf:RDF>
  </metadata>
  <g
     id="layer1"
     transform="matrix(0.44965663,0,0,0.44965663,-37.506249,-39.240628)">
    <g
       transform="matrix(3.2223986,0,0,3.2223986,-761.85475,-1309.5906)"
       id="g3047"
       style="display:inline">
      <path
         id="path2827"
         style="display:inline;fill:#f9f9f9;stroke:#000000;stroke-width:2"
         transform="matrix(-0.669317,-0.93904,0.865648,-0.617006,139.201,1193.35)"
         d="m 441.43666,529.86078 a 79.802048,87.125656 0 0 1 -79.80205,87.12565 79.802048,87.125656 0 0 1 -79.80204,-87.12565 79.802048,87.125656 0 0 1 79.80204,-87.12566 79.802048,87.125656 0 0 1 79.80205,87.12566 z" />
      <path
         transform="matrix(0.98366599,0,0,1.09418,-10.5751,-62.030105)"
         id="path1349"
         d="m 416.38515,577.40034 c -11.10739,10.10178 -26.44908,16.3526 -43.38631,16.3526 -33.87446,0 -61.36677,-25.00329 -61.36677,-55.81092 0,-30.80764 27.49231,-55.81093 61.36677,-55.81093 16.93723,0 32.27892,6.25082 43.38631,16.3526 l -42.61601,39.45813 z"
         style="display:inline;fill:#035cff;fill-opacity:1;fill-rule:evenodd;stroke:#00006d;stroke-width:1.69825;stroke-linecap:butt;stroke-linejoin:miter;stroke-miterlimit:4;stroke-dasharray:none;stroke-opacity:1" />
      <path
         id="path2825"
         style="display:inline;fill:#035cff;stroke:#00006d;stroke-width:1.36971"
         transform="matrix(1.2179,0,0,1.14616,-84.968904,-78.953803)"
         d="m 412.64732,528.09302 a 11.111678,11.616755 0 0 1 -11.11168,11.61675 11.111678,11.616755 0 0 1 -11.11167,-11.61675 11.111678,11.616755 0 0 1 11.11167,-11.61676 11.111678,11.616755 0 0 1 11.11168,11.61676 z" />
      <path
         style="font-weight:bold;font-size:13px;line-height:125%;-inkscape-font-specification:'Sans Bold'"
         d="m 296.85481,490.6705 -7.74816,-5.11093 1.08088,-1.63862 6.39169,4.21616 2.07586,-3.14701 1.35647,0.89477 z m 6.32811,-8.76406 -2.62632,3.30954 -0.87576,-0.69497 0.29572,-1.20918 -4.70463,-3.73342 -1.11038,0.5627 -0.87575,-0.69497 2.62632,-3.30954 0.87576,0.69497 -0.29572,1.20918 4.70463,3.73342 1.11038,-0.5627 z m 6.76954,-7.10599 -1.75785,1.77199 -7.83109,-2.0737 -0.0366,0.0369 q 0.489,0.44848 0.978,0.89695 0.49815,0.43924 0.98715,0.88771 l 3.10099,3.07625 -1.236,1.24593 -6.5896,-6.53702 1.7487,-1.76277 7.77579,2.03716 0.0275,-0.0277 q -0.47061,-0.44855 -0.94115,-0.87871 -0.47054,-0.43016 -0.94108,-0.86032 l -3.11945,-3.09456 1.24515,-1.25516 z m 7.73335,-6.03801 -1.7756,1.35903 -4.30874,-1.62975 -0.29722,0.98055 2.01483,2.63243 -1.55881,1.19309 -5.64153,-7.37079 1.55881,-1.1931 2.58372,3.3757 q -0.0111,-0.33531 -0.0222,-0.67061 -0.0111,-0.33531 -0.0222,-0.67062 l 0.0724,-4.0335 1.7343,-1.32742 -0.0737,5.22957 z m 7.45444,-4.37446 -1.92861,1.13144 -4.07682,-2.14496 -0.41503,0.93679 1.67742,2.85928 -1.69314,0.9933 -4.69679,-8.00598 1.69315,-0.9933 2.15105,3.6666 q 0.0301,-0.33414 0.0601,-0.66828 0.03,-0.33414 0.0601,-0.66828 l 0.5656,-3.99431 1.88376,-1.10513 -0.71331,5.18122 z m 4.25811,-1.87288 -3.83511,1.77273 -0.46909,-1.01483 0.80845,-0.94656 -2.52,-5.45176 -1.24481,0.003 -0.46909,-1.01482 3.83511,-1.77273 0.46909,1.01483 -0.80845,0.94656 2.52,5.45175 1.24481,-0.003 z m 4.57168,1.13733 q -0.35813,0.11778 -0.64606,0.15773 -0.28387,0.0523 -0.49771,0.0679 l -0.51173,-1.55602 q 0.21384,-0.0156 0.44831,-0.0516 0.22212,-0.032 0.46911,-0.11322 0.32108,-0.10559 0.5398,-0.31437 0.23107,-0.21285 0.26555,-0.60736 0.0345,-0.39452 -0.17672,-1.03668 l -2.71704,-8.26169 1.86475,-0.61327 2.71298,8.24934 q 0.37364,1.13614 0.24295,1.94548 -0.11429,0.81763 -0.64257,1.33349 -0.52422,0.52821 -1.35162,0.80032 z m 5.74345,-10.19705 1.02014,-4.1616 2.06383,-0.48037 -1.71587,6.21889 0.81928,3.51991 -1.89923,0.44205 -0.80455,-3.4566 -4.30044,-4.88529 2.0765,-0.48332 z m 12.54457,-5.77619 -2.08942,9.57963 -2.13125,0.24249 -4.17516,-8.86684 1.97625,-0.22486 2.35543,5.29265 q 0.0678,0.1362 0.20234,0.51342 0.14595,0.36282 0.29779,0.77731 0.15036,0.40158 0.22144,0.68134 0.006,-0.28858 0.0498,-0.7122 0.0548,-0.43801 0.11554,-0.82435 0.0593,-0.39925 0.0818,-0.54574 l 1.11915,-5.68799 z m 7.39261,9.30816 -0.65678,-2.21579 -3.37987,-0.0294 -0.69517,2.20405 -2.11892,-0.0184 3.35686,-9.29219 2.40491,0.0209 3.20789,9.34922 z m -1.76764,-6.03459 q -0.0631,-0.22155 -0.16414,-0.56044 -0.10106,-0.33889 -0.202,-0.69078 -0.10095,-0.3519 -0.16369,-0.61245 -0.0673,0.25943 -0.18764,0.64839 -0.10727,0.37609 -0.21431,0.72617 -0.0939,0.3372 -0.14718,0.47974 l -0.68172,2.15216 2.41791,0.021 z m -2.68573,-5.10652 q 0.004,-0.45499 0.26563,-0.64772 0.2618,-0.20573 0.62579,-0.20257 0.36398,0.003 0.62217,0.21341 0.27129,0.19737 0.26734,0.65235 -0.004,0.42898 -0.27852,0.6346 -0.2618,0.20574 -0.62579,0.20257 -0.36398,-0.003 -0.62217,-0.21341 -0.25818,-0.21025 -0.25445,-0.63923 z m 2.5609,0.0222 q 0.004,-0.45499 0.26564,-0.64772 0.26179,-0.20573 0.63878,-0.20246 0.36399,0.003 0.62217,0.21342 0.2713,0.19736 0.26734,0.65234 -0.004,0.42899 -0.27852,0.63461 -0.2618,0.20573 -0.62579,0.20257 -0.37698,-0.003 -0.63516,-0.21353 -0.25819,-0.21025 -0.25446,-0.63923 z m 10.93025,9.46778 q -0.15456,1.22529 -1.13724,1.8482 -0.96816,0.61165 -2.59328,0.40665 -1.45745,-0.18385 -2.5354,-0.88325 l 0.2294,-1.81859 q 0.622,0.36673 1.28757,0.69964 0.68009,0.32164 1.37657,0.4095 0.72228,0.0911 1.05309,-0.14232 0.34534,-0.24471 0.39903,-0.67034 0.0439,-0.34824 -0.17022,-0.62421 -0.20124,-0.27434 -0.57504,-0.53114 -0.37218,-0.2697 -0.85718,-0.57983 -0.30292,-0.19545 -0.65092,-0.449 -0.34638,-0.26644 -0.65557,-0.61992 -0.29467,-0.36474 -0.45699,-0.84383 -0.16232,-0.47908 -0.0826,-1.11107 0.15619,-1.23819 1.08078,-1.81602 0.92621,-0.59072 2.37076,-0.4085 0.72228,0.0911 1.34602,0.34013 0.63663,0.25064 1.30696,0.64967 l -0.82397,1.44222 q -0.59945,-0.33768 -1.08457,-0.543 -0.48512,-0.20533 -1.01393,-0.27204 -0.5546,-0.07 -0.88379,0.15058 -0.32919,0.22053 -0.38125,0.63326 -0.0618,0.49012 0.34091,0.82919 0.40273,0.33907 1.21482,0.8608 0.66708,0.42483 1.11164,0.84779 0.45745,0.42459 0.66648,0.94887 0.20903,0.52428 0.11792,1.24656 z m 8.59473,4.63174 -2.17185,-0.53176 -1.43067,-4.37887 -0.95035,0.38297 -0.78836,3.2199 -1.90668,-0.46684 2.20743,-9.0157 1.90668,0.46684 -1.01097,4.12904 q 0.25433,-0.2188 0.50866,-0.43759 0.25433,-0.21879 0.50866,-0.43759 l 3.18828,-2.47168 2.12134,0.5194 -4.12108,3.22032 z m 5.73187,-3.65242 3.16464,-2.88872 1.98176,0.75018 -4.88807,4.21016 -1.27945,3.37994 -1.82371,-0.69034 1.25643,-3.31916 -0.85183,-6.45246 1.99392,0.75479 z m 2.90019,7.09988 4.24005,-8.25697 1.74622,0.89671 -3.49774,6.81142 3.35367,1.72215 -0.7423,1.44555 z m 11.20672,6.61424 0.67495,-2.21032 -2.80252,-1.88952 -1.79596,1.45451 -1.75696,-1.18458 7.927,-5.8971 1.9941,1.34447 -2.48365,9.56713 z m 1.85575,-6.00807 q 0.0697,-0.21958 0.17237,-0.55797 0.10272,-0.33839 0.21271,-0.68756 0.10999,-0.34917 0.20144,-0.60108 -0.19924,0.17924 -0.51427,0.4372 -0.29699,0.25445 -0.57944,0.48734 -0.2644,0.22938 -0.38746,0.31888 l -1.75611,1.41866 2.00488,1.35174 z m 0.57798,-5.74071 q 0.25436,-0.37726 0.57895,-0.39359 0.33185,-0.0271 0.63366,0.17637 0.30181,0.20349 0.40111,0.5213 0.11735,0.31429 -0.13701,0.69156 -0.23982,0.3557 -0.58246,0.37555 -0.33186,0.0271 -0.63367,-0.17637 -0.30181,-0.20349 -0.40111,-0.5213 -0.0993,-0.31781 0.14053,-0.67352 z m 2.12344,1.43168 q 0.25436,-0.37726 0.57895,-0.3936 0.33186,-0.0271 0.64445,0.18364 0.30181,0.20349 0.40111,0.5213 0.11734,0.3143 -0.13702,0.69156 -0.23982,0.3557 -0.58245,0.37555 -0.33186,0.0271 -0.63367,-0.17637 -0.31259,-0.21075 -0.41189,-0.52857 -0.0993,-0.31781 0.14052,-0.67351 z m 9.07138,9.69146 q 1.36241,1.32145 1.52659,2.44055 0.17351,1.12814 -0.80399,2.13596 -0.4435,0.45725 -0.95569,0.63055 -0.49381,0.17302 -1.01841,0.13506 -0.50623,-0.0382 -0.97765,-0.20572 l -0.85522,4.80285 -1.56771,-1.52057 0.89359,-4.09553 -0.75586,-0.73314 -2.47997,2.55687 -1.40908,-1.3667 6.46242,-6.66278 z m -1.22498,1.05757 -0.42925,-0.41635 -1.74685,1.801 0.45725,0.4435 q 0.69988,0.67883 1.22476,0.73517 0.53422,0.0654 0.97772,-0.39186 0.4616,-0.47591 0.32507,-0.98866 -0.11816,-0.51303 -0.8087,-1.1828 z m 4.93316,8.62383 4.19038,-0.89463 1.33145,1.64846 -6.34528,1.16457 -2.81149,2.2708 -1.22525,-1.51699 2.76092,-2.22996 2.52404,-5.99909 1.33961,1.65858 z"
         id="text4347"
         aria-label="LINKKI JYVÄSKYLÄ RY" />
      <path
         id="path3795"
         style="display:inline;fill:none"
         transform="matrix(-0.704605,-0.413973,0.451739,-0.768884,374.751,1080.08)"
         d="m 447.49759,524.30493 a 84.852814,78.53936 0 0 1 -84.85281,78.53936 84.852814,78.53936 0 0 1 -84.85282,-78.53936 84.852814,78.53936 0 0 1 84.85282,-78.53936 84.852814,78.53936 0 0 1 84.85281,78.53936 z" />
      <path
         id="path3797"
         style="display:inline;fill:none"
         transform="matrix(-0.76837,0.514881,0.563461,0.835267,339.046,-97.5708)"
         d="m 447.49759,524.30493 a 84.852814,78.53936 0 0 1 -84.85281,78.53936 84.852814,78.53936 0 0 1 -84.85282,-78.53936 84.852814,78.53936 0 0 1 84.85282,-78.53936 84.852814,78.53936 0 0 1 84.85281,78.53936 z" />
      <path
         style="font-weight:bold;font-size:13px;line-height:125%;-inkscape-font-specification:'Sans Bold'"
         d="m 288.4961,572.53435 q -0.21918,-0.30674 -0.34314,-0.56967 -0.13455,-0.25537 -0.21317,-0.45484 l 1.33273,-0.9523 q 0.0786,0.19946 0.18293,0.41253 0.0968,0.20248 0.24791,0.41402 0.19651,0.27501 0.461,0.42155 0.27205,0.15712 0.6589,0.0724 0.38686,-0.0847 0.93688,-0.47771 l 7.07613,-5.0563 1.14126,1.59716 -7.06556,5.04874 q -0.9731,0.69533 -1.78461,0.81184 -0.81452,0.13465 -1.46441,-0.21584 -0.66046,-0.34293 -1.16685,-1.0516 z m 11.34285,1.40027 4.17284,-0.97316 1.36217,1.62317 -6.32229,1.28352 -2.76834,2.32321 -1.25353,-1.49371 2.71855,-2.28142 2.41093,-6.04544 1.37053,1.63313 z m 10.96264,5.86445 -8.73898,4.4458 -1.53671,-1.49652 4.22199,-8.84464 1.42495,1.38768 -2.60667,5.17354 q -0.0625,0.13872 -0.26941,0.48161 -0.18852,0.34265 -0.41331,0.72255 -0.21573,0.37059 -0.38733,0.60269 0.22748,-0.17769 0.58291,-0.41223 0.37381,-0.23478 0.71134,-0.43231 0.3466,-0.20684 0.4743,-0.28208 l 5.11197,-2.73377 z m -1.47468,10.5476 0.83455,-2.15513 -2.65706,-2.08912 -1.89737,1.31948 -1.66578,-1.30972 8.33646,-5.30251 1.8906,1.48649 -3.17563,9.36023 z m 2.28952,-5.85652 q 0.0855,-0.21391 0.21265,-0.5439 0.12716,-0.32998 0.26235,-0.67019 0.13519,-0.34021 0.2448,-0.58477 -0.2118,0.16421 -0.54483,0.39848 -0.31477,0.23209 -0.61347,0.44373 -0.28045,0.20946 -0.40972,0.28974 l -1.85501,1.28664 1.90082,1.49452 z m 0.99563,-5.68318 q 0.28123,-0.35768 0.60614,-0.35027 0.33295,-0.003 0.6191,0.22217 0.28614,0.22498 0.36197,0.5492 0.0941,0.32202 -0.18714,0.67971 -0.26516,0.33724 -0.60833,0.33201 -0.33295,0.003 -0.6191,-0.22217 -0.28614,-0.22498 -0.36197,-0.5492 -0.0758,-0.32421 0.18933,-0.66145 z m 2.01323,1.58291 q 0.28123,-0.35768 0.60615,-0.35027 0.33295,-0.003 0.62931,0.23021 0.28615,0.22498 0.36197,0.54919 0.0941,0.32203 -0.18714,0.67971 -0.26516,0.33724 -0.60833,0.33202 -0.33295,0.003 -0.61909,-0.22217 -0.29637,-0.23302 -0.3722,-0.55723 -0.0758,-0.32422 0.18933,-0.66146 z m 3.38811,12.6176 q -0.66144,1.04294 -1.8158,1.18829 -1.13643,0.14134 -2.5197,-0.73594 -1.24055,-0.78676 -1.91823,-1.87849 l 0.98171,-1.54794 q 0.40672,0.59661 0.86726,1.18117 0.47848,0.58055 1.07131,0.95652 0.61479,0.3899 1.0135,0.3195 0.41666,-0.0744 0.64642,-0.43671 0.18799,-0.29642 0.11169,-0.63729 -0.0653,-0.33392 -0.29425,-0.72541 -0.22197,-0.40247 -0.52881,-0.88955 -0.19091,-0.30581 -0.39788,-0.68337 -0.20001,-0.38855 -0.32933,-0.84001 -0.11137,-0.45549 -0.0543,-0.95809 0.0571,-0.5026 0.39822,-1.04054 0.6684,-1.05392 1.75101,-1.18321 1.08956,-0.14027 2.31913,0.63953 0.61479,0.3899 1.07319,0.88075 0.46939,0.4978 0.90609,1.14422 l -1.35951,0.95428 q -0.39869,-0.56073 -0.75025,-0.95303 -0.35157,-0.3923 -0.80168,-0.67776 -0.47207,-0.29939 -0.86382,-0.23996 -0.39175,0.0594 -0.61455,0.41074 -0.26458,0.41717 -0.0445,0.89542 0.22009,0.47825 0.73284,1.29604 0.42278,0.66838 0.64501,1.24034 0.2332,0.57893 0.19917,1.14232 -0.034,0.56339 -0.42393,1.17818 z m 6.75979,6.36647 -1.9975,-1.00482 -0.41327,-4.58809 -1.01199,0.16033 -1.48971,2.96142 -1.75362,-0.88214 4.17117,-8.29197 1.75363,0.88214 -1.91033,3.79758 q 0.29688,-0.15625 0.59376,-0.3125 0.29689,-0.15625 0.59377,-0.3125 l 3.66099,-1.69456 1.95105,0.98146 -4.7378,2.21518 z m 5.73526,-3.68556 3.16163,-2.89201 1.98255,0.74811 -4.8837,4.21525 -1.27593,3.38127 -1.82442,-0.68845 1.25298,-3.32046 -0.85855,-6.45157 1.99471,0.75271 z m 3.00853,6.82952 2.41741,-8.96168 1.89526,0.51125 -1.99419,7.39275 3.63989,0.98187 -0.42321,1.56892 z m 12.72341,2.74569 -0.31418,-2.28962 -3.33657,-0.54009 -1.02045,2.07359 -2.09177,-0.3386 4.7233,-8.67776 2.3741,0.38429 1.75734,9.72678 z m -0.83485,-6.23248 q -0.0288,-0.22855 -0.0775,-0.57882 -0.0487,-0.35028 -0.0952,-0.71339 -0.0466,-0.3631 -0.0692,-0.63015 -0.10571,0.24627 -0.28353,0.61257 -0.1629,0.35553 -0.32165,0.68541 -0.14384,0.31911 -0.21802,0.45197 l -0.99931,2.02433 2.38693,0.38637 z m -1.88271,-5.45391 q 0.0727,-0.44916 0.36052,-0.60011 0.2899,-0.16378 0.64922,-0.10562 0.35932,0.0582 0.58274,0.30504 0.23834,0.23612 0.16563,0.68527 -0.0685,0.42349 -0.37127,0.58519 -0.2899,0.16379 -0.64922,0.10562 -0.35932,-0.0582 -0.58275,-0.30503 -0.22342,-0.24688 -0.15487,-0.67036 z m 2.52809,0.40922 q 0.0727,-0.44916 0.36052,-0.60011 0.2899,-0.16378 0.66206,-0.10354 0.35932,0.0582 0.58274,0.30504 0.23834,0.23611 0.16563,0.68527 -0.0686,0.42348 -0.37128,0.58519 -0.28989,0.16378 -0.64921,0.10562 -0.37216,-0.0602 -0.59558,-0.30711 -0.22343,-0.24688 -0.15488,-0.67036 z m 11.68176,12.01219 -2.49432,-0.0917 -3.78223,-7.16387 -0.052,-0.002 q 0.002,0.6635 0.003,1.32701 0.0146,0.66399 0.0162,1.3275 l -0.16056,4.36504 -1.75381,-0.0645 0.34118,-9.27572 2.48132,0.0913 3.77163,7.09843 0.039,0.001 q 0.0109,-0.65004 0.008,-1.28756 -0.003,-0.63753 -0.005,-1.27505 l 0.16152,-4.39103 1.7668,0.065 z m 7.90301,-6.12761 1.44578,-4.03353 2.10249,-0.26398 -2.3509,6.00767 0.45022,3.58585 -1.93481,0.24292 -0.44212,-3.52135 -3.7712,-5.30452 2.1154,-0.2656 z m 5.84876,4.63339 -2.05687,-9.05123 1.9142,-0.435 1.69677,7.46664 3.67627,-0.83542 0.3601,1.5846 z m 10.44306,-2.79633 -4.03292,1.25942 -0.33327,-1.06718 0.92458,-0.83349 -1.79031,-5.73296 -1.23459,-0.15923 -0.33326,-1.06717 4.03293,-1.25942 0.33326,1.06718 -0.92458,0.83349 1.79031,5.73296 1.23459,0.15923 z m 7.46206,-8.03554 q 0.56367,1.32835 0.54236,2.50952 -0.0144,1.16411 -0.67835,2.09546 -0.66395,0.93135 -2.06411,1.52549 -1.38819,0.58905 -2.53128,0.4245 -1.13113,-0.16963 -1.9954,-0.97502 -0.8523,-0.81046 -1.41597,-2.13881 -0.56367,-1.32836 -0.54925,-2.49248 0.0264,-1.16919 0.6954,-2.08857 0.67591,-0.93643 2.07607,-1.53057 1.38819,-0.58905 2.51932,-0.41942 1.12605,0.15766 1.97835,0.96812 0.85919,0.79342 1.42286,2.12178 z m -6.23489,2.64569 q 0.56874,1.34032 1.41341,1.89983 0.83958,0.54754 1.97647,0.0651 1.16081,-0.49258 1.33843,-1.47176 0.17255,-0.99114 -0.3962,-2.33147 -0.57383,-1.35228 -1.40144,-1.9049 -0.82762,-0.55262 -1.97647,-0.0651 -1.14885,0.48749 -1.33844,1.47175 -0.18959,0.98426 0.38424,2.33655 z m 7.70365,-8.82797 q 1.55684,-0.89144 2.65516,-0.62151 1.10314,0.25218 1.77495,1.42546 0.4005,0.69945 0.46247,1.48788 0.0555,0.77716 -0.41949,1.54349 -0.46372,0.75987 -1.637,1.43168 l -0.73329,0.41989 1.64077,2.86549 -1.70351,0.97542 -4.61224,-8.05498 z m 0.71075,1.45058 -0.77842,0.44572 1.36946,2.39168 0.56407,-0.32299 q 0.72202,-0.41342 0.97794,-0.93446 0.26075,-0.53879 -0.10746,-1.18184 -0.67181,-1.17327 -2.02559,-0.39811 z m 11.1846,1.90458 -3.47525,2.40275 -0.63581,-0.9196 0.63458,-1.07093 -3.41561,-4.9402 -1.22602,0.21547 -0.63581,-0.91961 3.47526,-2.40275 0.6358,0.91961 -0.63457,1.07092 3.4156,4.94021 1.22603,-0.21548 z m 3.8951,-6.39615 q 0.77987,0.95762 0.55226,2.09862 -0.22574,1.12271 -1.49584,2.15707 -1.13906,0.92763 -2.38918,1.2248 l -1.1575,-1.42131 q 0.69469,-0.1969 1.395,-0.44867 0.70217,-0.27006 1.2465,-0.71335 0.56449,-0.45972 0.62394,-0.86021 0.0613,-0.41879 -0.20958,-0.75143 -0.22165,-0.27217 -0.56914,-0.30771 -0.33742,-0.0438 -0.78125,0.0494 -0.45204,0.0831 -1.01122,0.21996 -0.35052,0.0843 -0.77419,0.16105 -0.43188,0.0667 -0.90106,0.0464 -0.46732,-0.0386 -0.926,-0.25182 -0.45868,-0.21325 -0.86093,-0.70718 -0.78808,-0.96769 -0.56795,-2.03554 0.21191,-1.07792 1.34089,-1.99735 0.56449,-0.45971 1.17522,-0.73912 0.6208,-0.28763 1.37223,-0.49721 l 0.47476,1.59171 q -0.65812,0.20064 -1.14154,0.40992 -0.48343,0.20928 -0.89672,0.54585 -0.43344,0.35299 -0.5011,0.74341 -0.0677,0.39041 0.19503,0.71298 0.31195,0.38304 0.83527,0.3257 0.52333,-0.0574 1.46139,-0.2848 0.76785,-0.18942 1.38075,-0.21912 0.62299,-0.0379 1.14662,0.17274 0.52363,0.21065 0.98334,0.77514 z m 5.42,-1.65842 -1.40074,1.37525 -5.35526,-5.45453 -1.79962,1.76687 -1.14756,-1.16883 4.99999,-4.90899 1.14756,1.16883 -1.79963,1.76687 z m 4.2983,-12.09838 q 1.12081,0.90887 1.65594,1.96207 0.53321,1.03492 0.38359,2.16888 -0.14962,1.13395 -1.10761,2.31534 -0.94981,1.17129 -2.03657,1.56205 -1.07858,0.38065 -2.21962,0.0747 -1.13285,-0.31609 -2.25365,-1.22496 -1.12081,-0.90887 -1.65403,-1.94379 -0.52503,-1.04501 -0.36531,-2.17078 0.1578,-1.14404 1.1158,-2.32544 0.9498,-1.17129 2.02838,-1.55195 1.06848,-0.38884 2.20133,-0.0727 1.13094,0.29781 2.25175,1.20667 z m -4.26594,5.26073 q 1.13091,0.91706 2.13932,1.01509 0.99832,0.0898 1.77617,-0.86941 0.79424,-0.97944 0.4919,-1.92756 -0.31243,-0.95631 -1.44334,-1.87336 -1.141,-0.92525 -2.13113,-1.02519 -0.99013,-0.0999 -1.77617,0.86941 -0.78605,0.96935 -0.4919,1.92756 0.29415,0.95822 1.43515,1.88346 z"
         id="text7317"
         aria-label="JYVÄSKYLÄN YLIOPISTO" />
    </g>
  </g>
</svg>
