<?xml version="1.0" encoding="UTF-8" standalone="no"?>
<!-- Created with Inkscape (http://www.inkscape.org/) -->

<svg
   width="78.549065mm"
   height="78.54908mm"
   viewBox="0 0 392.74532 392.7454"
   version="1.1"
   id="svg1"
   xmlns:xlink="http://www.w3.org/1999/xlink"
   xmlns="http://www.w3.org/2000/svg"
   xmlns:svg="http://www.w3.org/2000/svg">
  <defs
     id="defs1">
    <linearGradient
       id="swatch2">
      <stop
         style="stop-color:#000000;stop-opacity:1;"
         offset="0"
         id="stop2" />
    </linearGradient>
    <linearGradient
       xlink:href="#linearGradient11878"
       id="linearGradient12013"
       gradientUnits="userSpaceOnUse"
       gradientTransform="matrix(0.91165614,0,0,0.91165614,5.2647566,6.9638393)"
       x1="63.610149"
       y1="199.44662"
       x2="151.82808"
       y2="102.25223" />
    <linearGradient
       id="linearGradient11878">
      <stop
         id="stop11874"
         offset="0"
         style="stop-color:#d89204;stop-opacity:1" />
      <stop
         style="stop-color:#f9c920;stop-opacity:1"
         offset="0.35216683"
         id="stop11894" />
      <stop
         style="stop-color:#facc3b;stop-opacity:1"
         offset="0.59548032"
         id="stop11880" />
      <stop
         id="stop11882"
         offset="0.84533203"
         style="stop-color:#f3ac04;stop-opacity:1" />
      <stop
         id="stop11876"
         offset="1"
         style="stop-color:#da8904;stop-opacity:1" />
    </linearGradient>
    <linearGradient
       xlink:href="#linearGradient13426"
       id="linearGradient12007"
       gradientUnits="userSpaceOnUse"
       x1="18.832705"
       y1="175.97179"
       x2="39.913147"
       y2="152.073"
       gradientTransform="matrix(0.91165614,0,0,0.91165614,5.2647566,6.9638393)" />
    <linearGradient
       id="linearGradient13426">
      <stop
         id="stop13422"
         offset="0"
         style="stop-color:#ffff00;stop-opacity:1;" />
      <stop
         id="stop13424"
         offset="1"
         style="stop-color:#ffff58;stop-opacity:1;" />
    </linearGradient>
  </defs>
  <circle
     style="font-variation-settings:normal;display:inline;opacity:1;fill:#007c85;fill-opacity:1;stroke:#000000;stroke-width:20;stroke-linecap:round;stroke-linejoin:miter;stroke-miterlimit:4;stroke-dasharray:none;stroke-dashoffset:0;stroke-opacity:1;paint-order:stroke fill markers;stop-color:#000000;stop-opacity:1"
     id="path1"
     cx="196.37268"
     cy="196.37268"
     r="186.37268" />
  <g
     id="layer8"
     style="display:inline"
     transform="matrix(2,0,0,2,-16.166695,-87.541875)">
    <path
       d="m 25.767439,189.20986 c 15.47697,28.19004 46.242116,47.43959 81.537131,47.43959 36.04995,0 67.38135,-20.07059 82.4808,-49.26418 -51.33818,-7.8458 -79.74402,-22.89874 -164.017931,1.82459 z"
       id="path2128"
       style="display:inline;fill:#000000;stroke-width:0.927875" />
    <path
       class="st3"
       d="m 23.030662,183.8273 c 1.604344,3.74042 3.057076,5.71493 4.850137,8.45183 62.409133,-20.71551 120.243641,-11.48111 159.232751,-3.80222 l 0.8493,-1.64213 C 137.2853,171.32571 79.181824,169.32173 23.030662,183.8273 Z"
       id="path2134"
       style="clip-rule:evenodd;display:inline;fill:#ffffff;fill-rule:evenodd;stroke-width:0.927875" />
  </g>
  <path
     id="path1349"
     d="m 270.79475,265.03072 c -19.13426,18.84418 -45.5628,30.50462 -74.7399,30.50462 -58.3542,0 -105.714131,-46.6419 -105.714131,-104.11142 0,-57.46954 47.359931,-104.11146 105.714131,-104.11146 29.1771,0 55.60564,11.66048 74.7399,30.50466 l -73.41294,73.60642 z"
     style="display:inline;fill:#035cff;fill-opacity:1;fill-rule:evenodd;stroke:#00006d;stroke-width:3.0443;stroke-linecap:butt;stroke-linejoin:miter;stroke-miterlimit:4;stroke-dasharray:none;stroke-opacity:1" />
  <g
     id="layer4"
     style="display:inline"
     transform="matrix(2,0,0,2,-16.166695,-87.541875)">
    <ellipse
       id="path2825"
       style="display:inline;fill:#035cff;fill-opacity:1;stroke:#00006d;stroke-width:1.39814;stroke-miterlimit:4;stroke-dasharray:none;stroke-opacity:1"
       cx="147.90489"
       cy="139.26978"
       rx="11.849867"
       ry="11.349861" />
    <path
       style="fill:#00006d;fill-opacity:1;stroke:#00006d;stroke-width:1.5;stroke-dasharray:none;stroke-opacity:1"
       d="m 137.74067,133.11427 h 20.39824"
       id="path2" />
    <path
       style="fill:#00006d;fill-opacity:1;stroke:#00006d;stroke-width:1.5;stroke-dasharray:none;stroke-opacity:1"
       d="m 137.61998,145.33511 h 20.39824"
       id="path2-6" />
    <path
       style="fill:#00006d;fill-opacity:1;stroke:#00006d;stroke-width:1.58851;stroke-dasharray:none;stroke-opacity:1"
       d="M 136.51676,139.11045 H 159.3933"
       id="path2-7" />
    <path
       style="fill:none;fill-opacity:1;stroke:#00006d;stroke-width:1.5;stroke-linejoin:bevel;stroke-dasharray:none;stroke-opacity:1"
       d="m 147.27387,127.99718 c -4.41612,4.97689 -4.41612,5.18718 -4.41612,5.18718 l -1.19165,5.74796 1.26175,6.44893 3.99553,5.11708"
       id="path3" />
    <path
       style="fill:none;fill-opacity:1;stroke:#00006d;stroke-width:1.5;stroke-linejoin:bevel;stroke-dasharray:none;stroke-opacity:1"
       d="m 148.73791,128.03515 c 4.41612,4.97689 4.41612,5.18718 4.41612,5.18718 l 1.19165,5.74796 -1.26175,6.44893 -3.99553,5.11708"
       id="path3-4" />
    <path
       style="fill:none;fill-opacity:1;stroke:#00006d;stroke-width:1.5;stroke-linecap:butt;stroke-linejoin:bevel;stroke-dasharray:none;stroke-opacity:1"
       d="m 148.11503,127.92709 v 22.57124"
       id="path4" />
  </g>
  <g
     id="layer3"
     transform="matrix(1.8020401,0,0,1.8020401,6.0597914,-60.946121)"
     style="display:inline">
    <path
       id="path11930"
       d="m 97.713084,108.38722 c -26.892488,11.21948 -54.904135,35.63943 -54.82032,76.46513 0.02254,10.98064 3.727606,5.44009 10.976934,-6.18109 z"
       style="display:inline;fill:url(#linearGradient12007);fill-opacity:1;stroke:none;stroke-width:0.241209px;stroke-linecap:butt;stroke-linejoin:miter;stroke-opacity:1" />
    <path
       id="path11870"
       d="m 147.04007,85.002028 c -15.97296,-0.09943 -43.68289,15.562752 -60.718249,32.297502 -14.014429,13.76715 -25.142576,29.97538 -31.604976,45.06606 -14.191169,33.13849 -12.974061,63.23105 33.354025,33.6324 -0.790312,-0.12174 -1.797438,-0.4584 -2.573932,-0.61103 -12.894292,7.34784 -26.614386,9.42161 -29.373355,-2.71667 C 52.141759,175.15197 77.663117,139.52108 91.741017,123.47251 132.64123,76.846995 166.543,80.512958 155.41879,109.7236 c -0.45682,1.19953 0.50431,3.10143 1.40108,0.48713 6.2303,-18.162895 0.79969,-25.142848 -9.7798,-25.208702 z"
       style="display:inline;fill:url(#linearGradient12013);fill-opacity:1;stroke:none;stroke-width:0.24121px;stroke-linecap:butt;stroke-linejoin:miter;stroke-opacity:1" />
    <path
       id="path11910"
       d="m 144.35992,87.812677 c -12.62431,-0.03592 -32.96167,10.4029 -54.68991,35.172703 -14.077899,16.04856 -38.476126,50.87482 -34.494303,68.39312 0.356775,1.56967 1.031873,2.85724 1.961706,3.89703 -0.446624,-0.75617 -0.790101,-1.62093 -1.01383,-2.60524 -3.981824,-17.51832 21.539534,-53.14921 35.617434,-69.19778 24.111493,-27.486677 45.789643,-37.493686 57.245673,-35.094499 -1.39491,-0.368686 -2.94212,-0.560541 -4.62677,-0.565334 z"
       style="display:inline;fill:#000000;fill-opacity:0.0510204;stroke:none;stroke-width:0.24121px;stroke-linecap:butt;stroke-linejoin:miter;stroke-opacity:1" />
  </g>
  <g
     id="layer7"
     transform="translate(-8.0833436,-43.77094)">
    <path
       d="m 115.49394,363.01726 q 3.14367,2.20664 3.61941,4.58084 0.51451,2.36741 -1.14846,4.73654 -0.99139,1.41238 -2.46315,2.24954 -1.45575,0.81441 -3.37302,0.59075 -1.89449,-0.20767 -4.26362,-1.87064 l -1.48071,-1.03937 -4.0615,5.78616 -3.439812,-2.4145 11.416982,-16.26506 z m -2.16504,2.69684 -1.57183,-1.10332 -3.3899,4.8294 1.13901,0.7995 q 1.45793,1.02337 2.70055,1.0455 1.28138,0.0153 2.19283,-1.28313 1.66297,-2.36913 -1.07066,-4.28795 z m 6.4685,23.43032 -7.80803,-4.56665 1.2084,-2.06612 2.6522,0.26146 6.49167,-11.09942 -1.5281,-2.18345 1.20839,-2.0661 7.80805,4.56664 -1.20842,2.06611 -2.6522,-0.26146 -6.49166,11.09941 1.52811,2.18345 z m 23.47954,0.26651 q -1.29558,2.80457 -3.19921,4.46981 -1.86669,1.65167 -4.29857,1.93851 -2.43188,0.28686 -5.38805,-1.07875 -2.93091,-1.35395 -4.31425,-3.40327 -1.35807,-2.03765 -1.32418,-4.56661 0.0592,-2.51729 1.35477,-5.32187 1.29559,-2.80456 3.16228,-4.45621 1.89196,-1.63998 4.31217,-1.90157 2.45715,-0.27518 5.41333,1.09044 2.93087,1.35393 4.28894,3.39158 1.36976,2.01238 1.31061,4.52967 -0.0222,2.50371 -1.31782,5.30826 z m -13.16378,-6.08108 q -1.30725,2.82983 -0.97947,4.97405 0.33945,2.11893 2.73975,3.22777 2.45084,1.13217 4.25903,0.005 1.81986,-1.1521 3.12711,-3.98194 1.31893,-2.8551 1.00475,-4.96236 -0.31419,-2.10726 -2.73975,-3.22777 -2.42557,-1.1205 -4.25903,-0.005 -1.83346,1.11515 -3.15239,3.97025 z m 29.68935,21.80962 -5.10236,-1.58796 -3.79864,-16.92255 -0.10618,-0.033 q -0.36864,1.37184 -0.7373,2.74371 -0.34207,1.38012 -0.71072,2.75199 l -2.77892,8.92912 -3.5876,-1.11653 5.90521,-18.97441 5.07579,1.57969 3.81343,16.78141 0.0796,0.0248 q 0.38696,-1.33703 0.73906,-2.65573 0.35211,-1.3187 0.70423,-2.63741 l 2.79546,-8.98229 3.61417,1.12481 z m 16.15312,3.18919 -11.23358,-2.15795 3.74884,-19.51527 11.23358,2.15795 -0.65106,3.3892 -7.1064,-1.36513 -0.82434,4.29117 6.61444,1.27063 -0.65106,3.3892 -6.61443,-1.27061 -0.96607,5.02915 7.10639,1.36511 z m 15.50041,1.68075 -11.38371,-1.1231 1.9511,-19.77608 11.38369,1.1231 -0.33883,3.43451 -7.20137,-0.71047 -0.42903,4.34851 6.70282,0.66128 -0.33884,3.43451 -6.70281,-0.66129 -0.50282,5.09636 7.20137,0.71047 z m 9.91079,-19.65233 q 4.06347,-0.006 5.98603,1.46644 1.95036,1.47226 1.95472,4.47811 0.002,1.36378 -0.52535,2.39434 -0.49951,1.00266 -1.36126,1.72755 -0.83396,0.69701 -1.80743,1.14374 l 5.85725,8.64729 -4.67578,0.007 -4.74248,-7.61911 -2.25439,0.003 0.0111,7.62598 -4.20266,0.006 -0.0288,-19.87207 z m -0.30116,3.45162 -1.28027,0.002 0.008,5.37158 1.36378,-0.002 q 2.0874,-0.003 2.977,-0.70013 0.91746,-0.69713 0.91549,-2.06089 -0.002,-1.41943 -0.97702,-2.00251 -0.94717,-0.61092 -3.00675,-0.60793 z m 36.31069,2.7856 q 0.50301,3.04814 -0.13691,5.49504 -0.61697,2.41492 -2.46807,4.01799 -1.8511,1.60306 -5.06399,2.13325 -3.18544,0.52567 -5.4809,-0.39311 -2.26801,-0.92331 -3.66018,-3.03489 -1.36471,-2.11608 -1.86773,-5.16422 -0.50301,-3.04813 0.11399,-5.46303 0.64445,-2.41946 2.50008,-3.99505 1.87856,-1.6076 5.09145,-2.13781 3.18543,-0.52567 5.45342,0.39765 2.26348,0.89586 3.62819,3.01194 1.38764,2.08412 1.89065,5.13224 z m -14.307,2.36099 q 0.50754,3.0756 1.98291,4.66568 1.47084,1.56261 4.0796,1.1321 2.66367,-0.43957 3.52701,-2.38736 0.85878,-1.97529 0.35124,-5.05087 -0.51208,-3.10305 -1.95544,-4.67022 -1.44338,-1.56714 -4.0796,-1.1321 -2.63622,0.43502 -3.52701,2.38737 -0.89077,1.95234 -0.37871,5.0554 z m 23.9034,5.21649 -3.99201,1.12307 -5.38186,-19.12944 10.95789,-3.08288 0.93469,3.32217 -6.9659,1.9598 1.387,4.92968 6.48365,-1.82411 0.9347,3.32219 -6.48365,1.82411 z m 31.10721,-33.91183 3.93107,20.12723 -4.32609,2.04969 -6.90858,-8.27595 q -0.20658,-0.2409 -0.59447,-0.73466 -0.36284,-0.50566 -0.82352,-1.08813 -0.4356,-0.59435 -0.81029,-1.12518 -0.38662,-0.55597 -0.59185,-0.85912 0.13032,0.33873 0.29004,1.00212 0.17351,0.62615 0.35762,1.33966 0.17212,0.6884 0.32047,1.32647 0.13635,0.61295 0.20393,0.95049 l 2.04236,10.55079 -4.32609,2.0497 -13.08631,-15.78945 3.74762,-1.77563 6.93641,8.72474 q 0.42499,0.50699 1.01815,1.30387 0.59315,0.79691 1.16116,1.60572 0.568,0.80881 0.92945,1.37669 -0.22266,-0.66448 -0.47671,-1.5912 -0.26626,-0.95178 -0.49655,-1.82821 -0.21711,-0.91343 -0.3059,-1.42575 l -2.15099,-11.30005 3.5967,-1.70413 7.38255,8.82135 q 0.32846,0.36795 0.87252,1.12651 0.56933,0.74658 1.13733,1.55538 0.568,0.80881 0.92946,1.37671 -0.22266,-0.66449 -0.47672,-1.59122 -0.26626,-0.95178 -0.50715,-1.91555 -0.21593,-0.97564 -0.36427,-1.61371 l -2.35878,-10.89363 z m 16.91698,12.15461 -3.53672,2.27018 -8.84021,-13.77215 -4.54387,2.91665 -1.89433,-2.95117 12.62449,-8.10351 1.89432,2.95117 -4.54388,2.91668 z m 10.24786,-7.34167 -3.26478,2.55705 -12.25327,-15.64472 8.96175,-7.01903 2.12802,2.71703 -5.69696,4.46197 3.15771,4.03169 5.30255,-4.15308 2.12801,2.71701 -5.30255,4.15308 z"
       id="text7317"
       style="font-weight:bold;font-size:13px;line-height:0%;-inkscape-font-specification:'Sans Bold';fill:#ffffff;stroke-width:2.14093"
       aria-label="PIONEER OF WTF" />
    <path
       d="m 77.878113,134.90591 13.229238,15.66992 -2.781749,3.89593 -10.062828,-3.86769 q -0.297675,-0.11005 -0.87686,-0.35251 -0.563021,-0.2652 -1.248974,-0.54979 -0.669789,-0.30724 -1.255439,-0.58863 -0.608323,-0.29754 -0.935114,-0.46248 0.278277,0.23289 0.741039,0.7343 0.456274,0.46259 0.964337,0.99632 0.485391,0.51759 0.925502,1.00281 0.417459,0.46906 0.640758,0.73108 l 6.918812,8.22315 -2.781749,3.89596 -19.116166,-7.42502 2.409763,-3.37495 10.305566,4.2462 q 0.618,0.23606 1.523998,0.64357 0.905976,0.40748 1.795809,0.83763 0.889813,0.43016 1.48195,0.75036 -0.517762,-0.47229 -1.190848,-1.15807 -0.695737,-0.70195 -1.323521,-1.3554 -0.634271,-0.69225 -0.961126,-1.09663 l -7.378362,-8.82484 2.312736,-3.23907 10.742315,4.11347 q 0.46593,0.16164 1.31044,0.55949 0.860696,0.37515 1.750508,0.80529 0.889812,0.43015 1.481949,0.75035 -0.51774,-0.47227 -1.190847,-1.15805 -0.695737,-0.70197 -1.37531,-1.42656 -0.663388,-0.74727 -1.103498,-1.23249 l -7.362092,-8.36867 z m 26.112777,1.67027 -7.884624,8.2875 -14.397263,-13.69737 7.884627,-8.28751 2.500367,2.37881 -4.987846,5.2427 3.165789,3.0119 4.642536,-4.87975 2.500367,2.37883 -4.642536,4.87973 3.710227,3.52987 4.987826,-5.2427 z m -5.00906,-22.08037 q 3.05221,-2.55427 5.32481,-3.00445 2.27259,-0.45015 4.07666,1.70559 1.08959,1.30199 1.22083,2.71645 0.15264,1.3966 -0.81792,2.53538 l 0.0893,0.10661 q 0.89343,-0.49363 1.83392,-0.62744 0.94049,-0.13381 1.91065,0.28824 0.97016,0.42206 1.97044,1.61732 1.73261,2.07038 1.22095,4.49464 -0.51168,2.42428 -3.11567,4.60344 l -5.69887,4.76917 -12.753498,-15.23967 z m 5.41781,5.73672 q 1.40871,-1.1789 1.56722,-2.07368 0.17984,-0.91263 -0.53465,-1.76639 -0.73235,-0.87511 -1.69418,-0.72344 -0.96183,0.15158 -2.3492,1.31271 l -1.707537,1.42896 2.840067,3.39371 z m 0.26517,4.13315 3.32234,3.97 2.11307,-1.76834 q 1.4514,-1.21461 1.56326,-2.25185 0.094,-1.05856 -0.6919,-1.9977 -0.71449,-0.85375 -1.74081,-0.86587 -1.02285,-0.0514 -2.55961,1.23474 z m 23.65354,-13.43443 q 1.45768,2.20595 0.73006,4.58825 -0.71974,2.34373 -3.64551,4.27705 -2.62392,1.73385 -5.35032,2.10098 l -2.1635,-3.27408 q 1.52182,-0.2717 3.06727,-0.65908 1.5533,-0.42594 2.8072,-1.2545 1.30036,-0.85926 1.5122,-1.69979 0.21973,-0.8791 -0.28662,-1.64538 -0.41427,-0.62695 -1.14701,-0.7766 -0.7095,-0.16507 -1.67482,-0.0608 -0.9807,0.0809 -2.20105,0.25347 -0.76463,0.1049 -1.68353,0.17834 -0.93424,0.0503 -1.92943,-0.0927 -0.98733,-0.18155 -1.91913,-0.73343 -0.93177,-0.55187 -1.68362,-1.68967 -1.473,-2.22917 -0.7769,-4.45719 0.68075,-2.25127 3.28144,-3.96977 1.30036,-0.85926 2.66085,-1.3246 1.3837,-0.48065 3.02909,-0.767282 l 0.67277,3.491852 q -1.44468,0.28744 -2.51906,0.63044 -1.07438,0.34298 -2.02641,0.97209 -0.99848,0.65977 -1.22568,1.47709 -0.22719,0.81732 0.26381,1.56037 0.58306,0.88238 1.71012,0.87155 1.12707,-0.0107 3.17384,-0.29584 1.67607,-0.24019 2.98807,-0.17298 1.33521,0.0518 2.40591,0.61192 1.0707,0.56015 1.92996,1.86048 z m 12.75897,-0.67392 -7.95128,4.31241 -1.14113,-2.10404 1.59775,-2.13301 -6.13025,-11.303043 -2.65924,0.175771 -1.14114,-2.104018 7.95128,-4.312405 1.14113,2.104039 -1.59775,2.133006 6.13024,11.30305 2.65925,-0.17578 z m 10.06764,-4.55882 -3.85904,1.66429 -6.48082,-15.027317 -4.95801,2.138229 -1.38873,-3.220125 13.77502,-5.940752 1.38876,3.220126 -4.958,2.138229 z m 18.80447,-6.488768 -10.92387,3.393968 -5.89609,-18.977262 10.92387,-3.393947 1.02398,3.295765 -6.91048,2.147028 1.29648,4.17286 6.43205,-1.998385 1.02398,3.295765 -6.43207,1.998405 1.51944,4.890499 6.91048,-2.147051 z m 18.69153,-3.618488 -4.15361,0.640052 -2.49245,-16.174318 -5.33643,0.82233 -0.53409,-3.465925 14.82647,-2.284733 0.5341,3.465925 -5.33643,0.82233 z m 18.62087,-1.347949 -1.63779,-4.668933 -7.23038,0.293178 -1.25439,4.786214 -4.5329,0.183691 6.19941,-20.223346 5.14472,-0.208526 7.84422,19.653902 z m -4.41539,-12.717791 q -0.15821,-0.467129 -0.41001,-1.181128 -0.25179,-0.714021 -0.5047,-1.455852 -0.25293,-0.741831 -0.41453,-1.29237 -0.11646,0.561822 -0.33295,1.406246 -0.18969,0.815479 -0.38179,1.575358 -0.16528,0.730934 -0.26417,1.041347 l -1.2311,4.673837 5.17252,-0.209811 z m 23.56694,8.233149 q -0.20103,2.636402 -2.23658,4.072171 -2.00562,1.410165 -5.50231,1.14347 -3.13591,-0.239185 -5.51477,-1.620875 l 0.29844,-3.912972 q 1.36876,0.718495 2.82712,1.360067 1.48822,0.615944 2.9868,0.730248 1.55408,0.118608 2.23682,-0.415575 0.71261,-0.559724 0.78245,-1.475527 0.0572,-0.749303 -0.42992,-1.316777 -0.4593,-0.565397 -1.28574,-1.075024 -0.8243,-0.537394 -1.89414,-1.149335 -0.6684,-0.385923 -1.43932,-0.891332 -0.76881,-0.533155 -1.46731,-1.256339 -0.66861,-0.748832 -1.06631,-1.756117 -0.39768,-1.007284 -0.29397,-2.367094 0.20317,-2.664148 2.11922,-3.997389 1.91814,-1.360988 5.02632,-1.123944 1.55408,0.118607 2.91412,0.585137 1.38781,0.468713 2.86334,1.251179 l -1.60959,3.170948 q -1.31749,-0.658742 -2.37649,-1.046549 -1.05904,-0.387829 -2.19685,-0.474601 -1.19331,-0.09099 -1.87393,0.415319 -0.68061,0.50635 -0.74834,1.394407 -0.0805,1.054556 0.81655,1.737041 0.89698,0.682506 2.68859,1.712356 1.47131,0.837959 2.46659,1.695422 1.02304,0.859603 1.52539,1.958605 0.50234,1.099002 0.38382,2.65308 z m 18.86761,8.994205 -4.70037,-0.907132 -3.52281,-9.211916 -1.99157,0.919528 -1.34489,6.968589 -4.12651,-0.796404 3.7657,-19.512023 4.12651,0.796404 -1.72463,8.936165 q 0.52068,-0.494769 1.04135,-0.989537 0.52065,-0.494768 1.04133,-0.989536 l 6.55588,-5.62276 4.59105,0.886044 -8.47122,7.322335 z m 13.20247,4.389522 -3.88925,-1.43911 6.89612,-18.637134 10.6759,3.95031 -1.19765,3.236697 -6.78664,-2.511201 -1.77714,4.802849 6.31679,2.337336 -1.19766,3.236717 -6.31678,-2.337357 z m 31.02332,3.49033 q -1.43123,2.73782 -3.41403,4.30795 -1.94525,1.55836 -4.38826,1.72591 -2.44301,0.16764 -5.32883,-1.34105 -2.86116,-1.4957 -4.14259,-3.61023 -1.25676,-2.10164 -1.09917,-4.62594 0.18219,-2.51137 1.61349,-5.249212 1.43123,-2.737817 3.37647,-4.296176 1.96991,-1.545471 4.40004,-1.688357 2.46767,-0.154575 5.35349,1.353944 2.86116,1.495694 4.11793,3.597335 1.26965,2.076978 1.08739,4.588366 -0.14472,2.49962 -1.57593,5.23746 z m -12.85053,-6.717756 q -1.44412,2.762476 -1.22164,4.920166 0.2354,2.13301 2.57858,3.35792 2.39253,1.25073 4.25368,0.21367 1.87404,-1.06169 3.31816,-3.82419 1.45703,-2.78717 1.2463,-4.907286 -0.21067,-2.120096 -2.57858,-3.357916 -2.36784,-1.237841 -4.25366,-0.213664 -1.88581,1.024134 -3.34284,3.8113 z m 27.9163,5.061196 q 3.30826,2.35947 4.01526,4.67553 0.72963,2.33219 -1.01574,4.77942 -0.79187,1.11031 -1.82034,1.64164 -0.98967,0.52485 -2.11231,0.61302 -1.0838,0.0818 -2.13544,-0.1214 l -0.26753,10.44088 -3.80679,-2.71502 0.57596,-8.95603 -1.83542,-1.30903 -4.42806,6.20869 -3.42159,-2.44027 11.53883,-16.17886 z m -2.2532,2.63199 -1.04233,-0.74339 -3.11906,4.37327 1.11033,0.79188 q 1.69945,1.21207 2.82857,1.16272 1.1518,-0.0332 1.94366,-1.14349 0.82422,-1.15563 0.37051,-2.19711 -0.41489,-1.04798 -2.09168,-2.24388 z m 18.2337,14.55524 q -1.78445,-1.63674 -3.95079,-1.16892 -2.16634,0.46781 -4.29219,2.78556 -2.14467,2.33823 -2.46843,4.42056 -0.28444,2.08064 1.64359,3.84905 0.90247,0.82776 1.97257,1.43161 1.09061,0.62267 2.4753,1.21292 l -2.38924,2.60489 q -1.32146,-0.49451 -2.43427,-1.1753 -1.11281,-0.6808 -2.28195,-1.75312 -2.2562,-2.06942 -2.8864,-4.34696 -0.59087,-2.27921 0.25441,-4.60075 0.8641,-2.34204 2.93354,-4.59824 2.03178,-2.21517 4.39318,-3.18388 2.3614,-0.9687 4.76341,-0.54056 2.42253,0.44696 4.6377,2.47876 1.08708,0.99708 1.91078,2.28131 0.86303,1.28255 1.43536,2.67614 l -3.31904,1.60101 q -0.46297,-1.14223 -1.04055,-2.20071 -0.55705,-1.03967 -1.35698,-1.77337 z m 2.87038,27.43637 -7.50354,-8.63408 14.99935,-13.03534 7.50352,8.63408 -2.60493,2.26384 -4.74675,-5.46193 -3.29819,2.86629 4.41815,5.08383 -2.60493,2.26383 -4.41813,-5.08382 -3.86537,3.35924 4.74675,5.46196 z"
       id="text4347"
       style="font-weight:bold;font-size:13px;line-height:0%;-inkscape-font-specification:'Sans Bold';fill:#ffffff;stroke-width:2.14093"
       aria-label="WEBSITE TASK FORCE" />
  </g>
</svg>
