<?xml version="1.0" encoding="UTF-8" standalone="no"?>
<!-- Created with Inkscape (http://www.inkscape.org/) -->

<svg
   width="673mm"
   height="134.39929mm"
   id="svg3054"
   version="1.1"
   xml:space="preserve"
   sodipodi:docname="linkki-navbar.svg"
   inkscape:version="1.4.2 (ebf0e940d0, 2025-05-08)"
   xmlns:inkscape="http://www.inkscape.org/namespaces/inkscape"
   xmlns:sodipodi="http://sodipodi.sourceforge.net/DTD/sodipodi-0.dtd"
   xmlns:xlink="http://www.w3.org/1999/xlink"
   xmlns="http://www.w3.org/2000/svg"
   xmlns:svg="http://www.w3.org/2000/svg"
   xmlns:rdf="http://www.w3.org/1999/02/22-rdf-syntax-ns#"
   xmlns:cc="http://creativecommons.org/ns#"
   xmlns:dc="http://purl.org/dc/elements/1.1/"><sodipodi:namedview
   id="namedview1"
   pagecolor="#505050"
   bordercolor="#eeeeee"
   borderopacity="1"
   inkscape:showpageshadow="0"
   inkscape:pageopacity="0"
   inkscape:pagecheckerboard="0"
   inkscape:deskcolor="#505050"
   inkscape:document-units="mm"
   inkscape:zoom="0.22386092"
   inkscape:cx="964.88483"
   inkscape:cy="355.13122"
   inkscape:window-width="1920"
   inkscape:window-height="1080"
   inkscape:window-x="0"
   inkscape:window-y="0"
   inkscape:window-maximized="1"
   inkscape:current-layer="svg3054" />
   <defs
   id="defs3"><linearGradient
     id="linearGradient4">
         <stop
   style="stop-color:#e50000;stop-opacity:1;"
   offset="0"
   id="stop5" />
         <stop
   style="stop-color:#ff8d00;stop-opacity:1;"
   offset="0.2"
   id="stop7" />
         <stop
   style="stop-color:#ffee00;stop-opacity:1;"
   offset="0.40000001"
   id="stop8" />
         <stop
   style="stop-color:#028121;stop-opacity:1;"
   offset="0.60000002"
   id="stop9" />
         <stop
   style="stop-color:#004cff;stop-opacity:1;"
   offset="0.80000001"
   id="stop10" />
         <stop
   style="stop-color:#770088;stop-opacity:1;"
   offset="1"
   id="stop6" />
      </linearGradient><linearGradient
     xlink:href="#linearGradient4"
     id="linearGradient6"
     x1="116.94821"
     y1="449.64157"
     x2="361.92075"
     y2="202.7935"
     gradientUnits="userSpaceOnUse" /><linearGradient
     xlink:href="#linearGradient4"
     id="linearGradient12"
     x1="117.0155"
     y1="444.98773"
     x2="366.96155"
     y2="194.59148"
     gradientUnits="userSpaceOnUse"
     gradientTransform="translate(-0.80451111,-0.93474267)" /></defs>
   <metadata
   id="metadata4">
      <rdf:RDF>
         <cc:Work
   rdf:about="">
            <dc:format>image/svg+xml</dc:format>
            <dc:type
   rdf:resource="http://purl.org/dc/dcmitype/StillImage" />
         </cc:Work>
      </rdf:RDF>
   </metadata>
   <g
   id="layer1"
   transform="translate(-1.4282491,1.1670322)"
   style="display:inline">
      
      <style
   id="style1">
      #text1 {
            fill: #000;
      }
    </style>
      <g
   id="text1"
   style="font-weight:bold;font-size:192px;font-family:Sans;-inkscape-font-specification:'Sans Bold';letter-spacing:0px;white-space:pre"
   transform="translate(-464.60265,6.0400102)"
   aria-label="LINKKI JYVÄSKYLÄ RY">
         <path
   d="M 604.51367,324.81781 H 503.82617 V 185.22406 h 36 v 112.59375 h 64.6875 z m 97.125,0 h -81.75 v -24.75 h 22.875 v -90.09375 h -22.875 v -24.75 h 81.75 v 24.75 h -22.875 v 90.09375 h 22.875 z m 156.28125,0 h -34.6875 l -59.25,-95.8125 v 95.8125 h -33 V 185.22406 h 43.03125 l 50.90625,79.96875 v -79.96875 h 33 z m 165.93748,0 h -44.15623 l -41.71875,-55.875 -8.4375,10.21875 v 45.65625 h -36 V 185.22406 h 36 v 63.1875 l 49.875,-63.1875 h 41.71878 l -54.56253,64.59375 z m 148.0313,0 h -44.1563 l -41.7187,-55.875 -8.4375,10.21875 v 45.65625 h -36 V 185.22406 h 36 v 63.1875 l 49.875,-63.1875 h 41.7187 l -54.5625,64.59375 z m 93.1875,0 h -81.75 v -24.75 h 22.875 v -90.09375 h -22.875 v -24.75 h 81.75 v 24.75 h -22.875 v 90.09375 h 22.875 z"
   id="path3" />
         <path
   d="m 1452.7949,283.84906 q 0,9.1875 -3.2812,17.25 -3.2813,7.96875 -9.75,13.5 -6.8438,5.90625 -16.5,9.1875 -9.6563,3.1875 -23.9063,3.1875 -9.6562,0 -18.1875,-0.75 -8.5312,-0.65625 -15,-1.96875 v -28.3125 h 3.375 q 4.5,1.6875 9.375,3.1875 4.875,1.40625 12.4688,1.40625 9.8437,0 15.0937,-2.625 5.3438,-2.625 7.5938,-7.3125 2.1562,-4.59375 2.4375,-10.03125 0.2812,-5.53125 0.2812,-14.0625 v -55.59375 h -31.9687 v -25.6875 h 67.9687 z m 156.6563,-98.625 -51.4688,85.59375 v 54 h -36 v -52.3125 l -52.3125,-87.28125 h 40.875 l 30.1875,54 29.1563,-54 z m 145.2187,0 -50.9062,139.59375 h -40.3125 l -50.9063,-139.59375 h 37.7813 l 33.75,98.0625 33.75,-98.0625 z m 149.0625,139.59375 h -37.2187 l -9.6563,-28.21875 h -51.75 l -9.6562,28.21875 h -36.2813 l 51.5625,-139.59375 h 41.4375 z m -55.5937,-53.8125 -17.1563,-50.0625 -17.1562,50.0625 z m 22.5937,-101.4375 h -27.8437 v -25.59375 h 27.8437 z m -50.3437,0 h -27.8438 v -25.59375 h 27.8438 z m 215.1562,111.375 q 0,20.625 -17.5312,33.5625 -17.4375,12.84375 -47.4375,12.84375 -17.3438,0 -30.2813,-3 -12.8437,-3.09375 -24.0937,-7.78125 v -33.46875 h 3.9375 q 11.1562,8.90625 24.9375,13.6875 13.875,4.78125 26.625,4.78125 3.2812,0 8.625,-0.5625 5.3437,-0.5625 8.7187,-1.875 4.125,-1.6875 6.75,-4.21875 2.7188,-2.53125 2.7188,-7.5 0,-4.59375 -3.9375,-7.875 -3.8438,-3.375 -11.3438,-5.15625 -7.875,-1.875 -16.6875,-3.46875 -8.7187,-1.6875 -16.4062,-4.21875 -17.625,-5.71875 -25.4063,-15.46875 -7.6875,-9.84375 -7.6875,-24.375 0,-19.5 17.4375,-31.78125 17.5313,-12.375 45,-12.375 13.7813,0 27.1875,2.71875 13.5,2.625 23.3438,6.65625 v 32.15625 h -3.8438 q -8.4375,-6.75 -20.7187,-11.25 -12.1875,-4.59375 -24.9375,-4.59375 -4.5,0 -9,0.65625 -4.4063,0.5625 -8.5313,2.25 -3.6562,1.40625 -6.2812,4.3125 -2.625,2.8125 -2.625,6.46875 0,5.53125 4.2187,8.53125 4.2188,2.90625 15.9375,5.34375 7.6875,1.59375 14.7188,3.09375 7.125,1.5 15.2812,4.125 16.0313,5.25 23.625,14.34375 7.6875,9 7.6875,23.4375 z m 154.9688,43.875 h -44.1563 l -41.7187,-55.875 -8.4375,10.21875 v 45.65625 h -36 V 185.22406 h 36 v 63.1875 l 49.875,-63.1875 h 41.7187 l -54.5625,64.59375 z m 140.5312,-139.59375 -51.4687,85.59375 v 54 h -36 v -52.3125 l -52.3125,-87.28125 h 40.875 l 30.1875,54 29.1562,-54 z m 119.3438,139.59375 H 2349.7012 V 185.22406 h 36 v 112.59375 h 64.6875 z m 150.6562,0 h -37.2187 l -9.6563,-28.21875 h -51.75 l -9.6562,28.21875 h -36.2813 l 51.5625,-139.59375 h 41.4375 z m -55.5937,-53.8125 -17.1563,-50.0625 -17.1562,50.0625 z m 22.5937,-101.4375 h -27.8437 v -25.59375 h 27.8437 z m -50.3437,0 h -27.8438 v -25.59375 h 27.8438 z"
   id="path4" />
         <path
   d="m 2775.0137,227.97406 q 0,-5.25 -2.1563,-9 -2.1562,-3.75 -7.4062,-5.90625 -3.6563,-1.5 -8.5313,-1.78125 -4.875,-0.375 -11.3437,-0.375 h -13.0313 v 37.59375 h 11.0625 q 8.625,0 14.4375,-0.84375 5.8125,-0.84375 9.75,-3.84375 3.75,-2.90625 5.4375,-6.375 1.7813,-3.5625 1.7813,-9.46875 z m 56.1562,96.84375 h -43.9687 l -38.0625,-51.1875 h -16.5938 v 51.1875 h -35.8125 V 185.22406 h 60.375 q 12.375,0 21.2813,1.40625 8.9062,1.40625 16.6875,6.09375 7.875,4.6875 12.4687,12.1875 4.6875,7.40625 4.6875,18.65625 0,15.46875 -7.2187,25.21875 -7.125,9.75 -20.4375,16.21875 z m 138.5625,-139.59375 -51.4687,85.59375 v 54 h -36 v -52.3125 l -52.3125,-87.28125 h 40.875 l 30.1875,54 29.1562,-54 z"
   id="path5" />
      </g>
   </g>
   
   
   
</svg>
