<?xml version="1.0" encoding="UTF-8" standalone="no"?>
<!-- Created with Inkscape (http://www.inkscape.org/) -->

<svg
   width="795.05084mm"
   height="134.39929mm"
   id="svg3054"
   version="1.1"
   xml:space="preserve"
   xmlns:xlink="http://www.w3.org/1999/xlink"
   xmlns="http://www.w3.org/2000/svg"
   xmlns:svg="http://www.w3.org/2000/svg"
   xmlns:rdf="http://www.w3.org/1999/02/22-rdf-syntax-ns#"
   xmlns:cc="http://creativecommons.org/ns#"
   xmlns:dc="http://purl.org/dc/elements/1.1/">
   <defs
   id="defs3"><linearGradient
     id="linearGradient4">
         <stop
   style="stop-color:#e50000;stop-opacity:1;"
   offset="0"
   id="stop5" />
         <stop
   style="stop-color:#ff8d00;stop-opacity:1;"
   offset="0.2"
   id="stop7" />
         <stop
   style="stop-color:#ffee00;stop-opacity:1;"
   offset="0.40000001"
   id="stop8" />
         <stop
   style="stop-color:#028121;stop-opacity:1;"
   offset="0.60000002"
   id="stop9" />
         <stop
   style="stop-color:#004cff;stop-opacity:1;"
   offset="0.80000001"
   id="stop10" />
         <stop
   style="stop-color:#770088;stop-opacity:1;"
   offset="1"
   id="stop6" />
      </linearGradient><linearGradient
     xlink:href="#linearGradient4"
     id="linearGradient6"
     x1="116.94821"
     y1="449.64157"
     x2="361.92075"
     y2="202.7935"
     gradientUnits="userSpaceOnUse" /><linearGradient
     xlink:href="#linearGradient4"
     id="linearGradient12"
     x1="117.0155"
     y1="444.98773"
     x2="366.96155"
     y2="194.59148"
     gradientUnits="userSpaceOnUse"
     gradientTransform="translate(-0.80451111,-0.93474267)" /></defs>
   <metadata
   id="metadata4">
      <rdf:RDF>
         <cc:Work
   rdf:about="">
            <dc:format>image/svg+xml</dc:format>
            <dc:type
   rdf:resource="http://purl.org/dc/dcmitype/StillImage" />
         </cc:Work>
      </rdf:RDF>
   </metadata>
   <g
   id="layer1"
   transform="translate(-1.4282491,1.1670322)"
   style="display:inline">
      <g
   transform="matrix(3.2223986,0,0,3.2223986,-891.26428,-1445.6547)"
   id="g3047"
   style="display:inline">
         <path
   transform="matrix(0.983666,0,0,1.09418,-10.5751,-62.0301)"
   id="path1349"
   d="m 416.38515,577.40034 c -11.10739,10.10178 -26.44908,16.3526 -43.38631,16.3526 -33.87446,0 -61.36677,-25.00329 -61.36677,-55.81092 0,-30.80764 27.49231,-55.81093 61.36677,-55.81093 16.93723,0 32.27892,6.25082 43.38631,16.3526 l -42.61601,39.45813 z"
   style="display:inline;fill:#035cff;fill-opacity:1;fill-rule:evenodd;stroke:#00006d;stroke-width:1.69825;stroke-linecap:butt;stroke-linejoin:miter;stroke-miterlimit:4;stroke-dasharray:none;stroke-opacity:1" />
         <ellipse
   transform="matrix(1.2179,0,0,1.14616,-84.9689,-78.9538)"
   id="path2825"
   style="display:inline;fill:#035cff;fill-opacity:1;stroke:#00006d;stroke-width:1.36971;stroke-miterlimit:4;stroke-dasharray:none;stroke-opacity:1"
   cx="401.53564"
   cy="528.09302"
   rx="11.111678"
   ry="11.616755" />
         <ellipse
   transform="matrix(-0.704605,-0.413973,0.451739,-0.768884,374.751,1080.08)"
   id="path3795"
   style="display:inline;fill:none;stroke:none"
   cx="362.64478"
   cy="524.30493"
   rx="84.852814"
   ry="78.53936" />
         <ellipse
   transform="matrix(-0.76837,0.514881,0.563461,0.835267,339.046,-97.5708)"
   id="path3797"
   style="display:inline;fill:none;stroke:none"
   cx="362.64478"
   cy="524.30493"
   rx="84.852814"
   ry="78.53936" />
      </g>
      <style
   id="style1">
      @media (prefers-color-scheme: dark) {
         #text1 {
            fill: #ddd;
         }
      }
    </style>
      <g
   id="text1"
   style="font-weight:bold;font-size:192px;font-family:Sans;-inkscape-font-specification:'Sans Bold';letter-spacing:0px;white-space:pre"
   transform="translate(36.612249,-5.5346586)"
   aria-label="LINKKI JYVÄSKYLÄ RY">
         <path
   d="M 604.51367,324.81781 H 503.82617 V 185.22406 h 36 v 112.59375 h 64.6875 z m 97.125,0 h -81.75 v -24.75 h 22.875 v -90.09375 h -22.875 v -24.75 h 81.75 v 24.75 h -22.875 v 90.09375 h 22.875 z m 156.28125,0 h -34.6875 l -59.25,-95.8125 v 95.8125 h -33 V 185.22406 h 43.03125 l 50.90625,79.96875 v -79.96875 h 33 z m 165.93748,0 h -44.15623 l -41.71875,-55.875 -8.4375,10.21875 v 45.65625 h -36 V 185.22406 h 36 v 63.1875 l 49.875,-63.1875 h 41.71878 l -54.56253,64.59375 z m 148.0313,0 h -44.1563 l -41.7187,-55.875 -8.4375,10.21875 v 45.65625 h -36 V 185.22406 h 36 v 63.1875 l 49.875,-63.1875 h 41.7187 l -54.5625,64.59375 z m 93.1875,0 h -81.75 v -24.75 h 22.875 v -90.09375 h -22.875 v -24.75 h 81.75 v 24.75 h -22.875 v 90.09375 h 22.875 z"
   id="path3" />
         <path
   d="m 1452.7949,283.84906 q 0,9.1875 -3.2812,17.25 -3.2813,7.96875 -9.75,13.5 -6.8438,5.90625 -16.5,9.1875 -9.6563,3.1875 -23.9063,3.1875 -9.6562,0 -18.1875,-0.75 -8.5312,-0.65625 -15,-1.96875 v -28.3125 h 3.375 q 4.5,1.6875 9.375,3.1875 4.875,1.40625 12.4688,1.40625 9.8437,0 15.0937,-2.625 5.3438,-2.625 7.5938,-7.3125 2.1562,-4.59375 2.4375,-10.03125 0.2812,-5.53125 0.2812,-14.0625 v -55.59375 h -31.9687 v -25.6875 h 67.9687 z m 156.6563,-98.625 -51.4688,85.59375 v 54 h -36 v -52.3125 l -52.3125,-87.28125 h 40.875 l 30.1875,54 29.1563,-54 z m 145.2187,0 -50.9062,139.59375 h -40.3125 l -50.9063,-139.59375 h 37.7813 l 33.75,98.0625 33.75,-98.0625 z m 149.0625,139.59375 h -37.2187 l -9.6563,-28.21875 h -51.75 l -9.6562,28.21875 h -36.2813 l 51.5625,-139.59375 h 41.4375 z m -55.5937,-53.8125 -17.1563,-50.0625 -17.1562,50.0625 z m 22.5937,-101.4375 h -27.8437 v -25.59375 h 27.8437 z m -50.3437,0 h -27.8438 v -25.59375 h 27.8438 z m 215.1562,111.375 q 0,20.625 -17.5312,33.5625 -17.4375,12.84375 -47.4375,12.84375 -17.3438,0 -30.2813,-3 -12.8437,-3.09375 -24.0937,-7.78125 v -33.46875 h 3.9375 q 11.1562,8.90625 24.9375,13.6875 13.875,4.78125 26.625,4.78125 3.2812,0 8.625,-0.5625 5.3437,-0.5625 8.7187,-1.875 4.125,-1.6875 6.75,-4.21875 2.7188,-2.53125 2.7188,-7.5 0,-4.59375 -3.9375,-7.875 -3.8438,-3.375 -11.3438,-5.15625 -7.875,-1.875 -16.6875,-3.46875 -8.7187,-1.6875 -16.4062,-4.21875 -17.625,-5.71875 -25.4063,-15.46875 -7.6875,-9.84375 -7.6875,-24.375 0,-19.5 17.4375,-31.78125 17.5313,-12.375 45,-12.375 13.7813,0 27.1875,2.71875 13.5,2.625 23.3438,6.65625 v 32.15625 h -3.8438 q -8.4375,-6.75 -20.7187,-11.25 -12.1875,-4.59375 -24.9375,-4.59375 -4.5,0 -9,0.65625 -4.4063,0.5625 -8.5313,2.25 -3.6562,1.40625 -6.2812,4.3125 -2.625,2.8125 -2.625,6.46875 0,5.53125 4.2187,8.53125 4.2188,2.90625 15.9375,5.34375 7.6875,1.59375 14.7188,3.09375 7.125,1.5 15.2812,4.125 16.0313,5.25 23.625,14.34375 7.6875,9 7.6875,23.4375 z m 154.9688,43.875 h -44.1563 l -41.7187,-55.875 -8.4375,10.21875 v 45.65625 h -36 V 185.22406 h 36 v 63.1875 l 49.875,-63.1875 h 41.7187 l -54.5625,64.59375 z m 140.5312,-139.59375 -51.4687,85.59375 v 54 h -36 v -52.3125 l -52.3125,-87.28125 h 40.875 l 30.1875,54 29.1562,-54 z m 119.3438,139.59375 H 2349.7012 V 185.22406 h 36 v 112.59375 h 64.6875 z m 150.6562,0 h -37.2187 l -9.6563,-28.21875 h -51.75 l -9.6562,28.21875 h -36.2813 l 51.5625,-139.59375 h 41.4375 z m -55.5937,-53.8125 -17.1563,-50.0625 -17.1562,50.0625 z m 22.5937,-101.4375 h -27.8437 v -25.59375 h 27.8437 z m -50.3437,0 h -27.8438 v -25.59375 h 27.8438 z"
   id="path4" />
         <path
   d="m 2775.0137,227.97406 q 0,-5.25 -2.1563,-9 -2.1562,-3.75 -7.4062,-5.90625 -3.6563,-1.5 -8.5313,-1.78125 -4.875,-0.375 -11.3437,-0.375 h -13.0313 v 37.59375 h 11.0625 q 8.625,0 14.4375,-0.84375 5.8125,-0.84375 9.75,-3.84375 3.75,-2.90625 5.4375,-6.375 1.7813,-3.5625 1.7813,-9.46875 z m 56.1562,96.84375 h -43.9687 l -38.0625,-51.1875 h -16.5938 v 51.1875 h -35.8125 V 185.22406 h 60.375 q 12.375,0 21.2813,1.40625 8.9062,1.40625 16.6875,6.09375 7.875,4.6875 12.4687,12.1875 4.6875,7.40625 4.6875,18.65625 0,15.46875 -7.2187,25.21875 -7.125,9.75 -20.4375,16.21875 z m 138.5625,-139.59375 -51.4687,85.59375 v 54 h -36 v -52.3125 l -52.3125,-87.28125 h 40.875 l 30.1875,54 29.1562,-54 z"
   id="path5" />
      </g>
   </g>
   <g
   id="jouluhattu"
   fill="#000000"
   stroke="none"
   transform="matrix(-0.06110995,0.03090211,0.02437213,0.04028347,256.55508,-159.46839)">
      <path
   d="M 1385,5910 C 1234.6558,5883.2298 1078.9907,5878.4432 931.125,5843.125 758.69388,5813.4767 743.95629,5605.2253 735.90625,5462.25 721.94286,5267.3667 737.63363,5068.5925 725.89879,4875.0539 710.12321,4823.6013 642.42601,4771.8268 687.25596,4720.1415 748.2465,4599.6897 741.47297,4458.8565 752.75,4326.625 792.31815,4187.9461 805.66722,4042.1609 850,3906 c 45.40528,-61.236 169.9696,-195.9543 227.875,-158 5.579,174.9243 183.3546,158.3602 317.25,175.125 138.2489,30.7987 281.0668,39.133 419.875,66.875 625.8593,17.9055 1252.5912,5.8037 1878.8417,8.2611 95.9614,-3.007 194.8634,5.598 289.0265,-4.5099 C 4107.8956,3946.3532 4141.5502,3804.283 4212,3704 c 115.8294,85.0248 244.4071,197.0297 248,351 23.2447,134.2352 76.5895,268.7539 83.0938,401.3125 C 4428.3178,4590.435 4524.8844,4733.6216 4490,4875 c -66.6898,127.797 -20.7912,272.3126 -2.75,408.875 7.6244,147.0602 55.1358,317.1258 -41.625,442 -132.6825,33.4822 -262.2952,71.4811 -396.625,97.25 -133.1755,37.6578 -272.4632,52.4281 -410.3379,72.6758 -271.1434,6.3882 -542.5746,0.8034 -812.9663,20.5976 -480.06,3.1237 -961.0086,11.4372 -1440.6958,-6.3984 z"
   id="path4485"
   style="fill:#ffffff;fill-opacity:1;stroke:#000000;stroke-width:67;stroke-miterlimit:4;stroke-dasharray:none;stroke-opacity:1" />
      <path
   d="m 4906.9194,3330.3351 c -162.5144,-71.8419 -310.1308,-184.894 -443.6993,-322.1116 -224.5815,-184.3468 -432.2055,-402.5041 -670.02,-558.8822 -162.5802,-116.5408 -318.2133,-251.6121 -488.5601,-348.582 -110.2811,-62.4507 -228.1374,-33.7893 -343.6012,-28.2568 81.9473,-123.3012 193.4468,-215.9523 285.5637,-329.5316 212.6887,-206.9812 457.3162,-354.795 678.2033,-544.745 90.9905,101.6708 150.7032,252.183 224.7285,377.5198 272.8422,467.3876 508.6441,968.6313 758.5292,1457.023 43.2637,81.6103 75.6855,306.324 -1.1441,297.5664 z"
   id="path4487"
   style="fill:#aa0000;fill-opacity:1;stroke:#000000;stroke-width:49.2254;stroke-linecap:round;stroke-linejoin:bevel;stroke-miterlimit:4;stroke-dasharray:none;stroke-opacity:1" />
      <path
   d="m 1387.3023,3972.7006 c -168.9579,-5.9962 -361.853,-20.8329 -206.8641,-164.0392 64.742,-183.9323 223.857,-350.5423 335.7856,-525.4457 140.5382,-181.4919 231.4177,-383.6396 443.592,-537.2255 178.6576,-147.9966 353.8522,-300.3053 535.1512,-445.1414 189.3605,-101.7845 401.2701,-126.8612 611.174,-78.7958 229.4075,1.1393 370.4914,142.1767 538.2274,224.2494 185.4925,106.5372 354.3346,230.6689 334.5407,412.0781 55.1696,232.3318 106.0674,467.3572 154.8631,700.3245 66.0115,110.4062 -11.8288,250.252 -121.5486,336.9841 -230.4536,-13.5286 -464.658,1.2326 -697.5165,27.1257 -269.5655,14.6997 -541.0846,38.8121 -808.4868,21.0282 -372.8363,-8.721 -747.8632,40.8568 -1118.918,28.8576 z"
   id="path4489"
   style="fill:#aa0000;fill-opacity:1;stroke:#000000;stroke-width:69.1863;stroke-linecap:round;stroke-linejoin:bevel;stroke-miterlimit:4;stroke-dasharray:none;stroke-opacity:1" />
      <path
   style="fill:#ffffff;fill-opacity:1;stroke:#000000;stroke-width:65.433;stroke-linecap:round;stroke-linejoin:bevel;stroke-miterlimit:4;stroke-dasharray:none;stroke-opacity:1"
   d="m 5175.4191,4297.258 c -27.2635,-24.5714 -45.7912,-58.5492 -63.2859,-92.5276 -4.867,-49.9278 -35.8712,-76.5069 -72.7405,-74.9965 -15.7057,-22.8758 -13.7164,-57.6407 -20.0337,-86.3437 1.0151,-20.6214 -19.2947,-15.218 -29.8219,-21.7532 -28.2343,-7.3397 -61.3887,-20.0509 -69.1825,-60.7297 -13.8673,-40.6687 1.8002,-82.8335 -8.3308,-125.0792 15.7659,-43.0745 -24.7093,-43.0989 -42.1048,-52.5705 -11.9771,-34.2628 -10.8678,-69.5307 24.2203,-72.2729 9.447,-11.55 32.8824,-18.0899 23.858,-39.5081 -7.7103,-50.1266 -15.4205,-100.2529 -23.1308,-150.3794 19.6636,-23.1625 47.8776,-26.1027 66.6532,-48.9588 21.3191,-36.0853 30.3909,-90.7401 56.4159,-127.1885 25.1173,-53.2024 56.5975,12.4738 90.4107,-11.6467 33.2494,-11.3197 72.1163,-22.9577 97.1837,15.9473 15.8872,38.1925 50.0511,43.5666 77.5657,44.8612 16.2083,34.5969 22.0777,82.2858 50.0967,106.0198 22.5631,-20.3631 51.067,-43.3165 78.913,-45.3945 17.1612,25.7395 -14.2715,110.4184 31.876,83.2352 18.58,-28.1177 51.8635,-25.1267 57.1054,13.0786 18.5103,34.208 -16.0022,79.4051 -25.7419,114.1579 -9.0191,42.2168 37.3055,75.8197 27.7317,121.2237 -17.1875,46.0571 12.8824,101.1716 -18.6647,140.6288 -23.6832,33.9359 -25.6481,79.1341 -32.3753,119.1945 -4.728,37.638 6.7665,104.472 -34.4861,111.1975 -35.0129,18.8889 -64.8706,61.9088 -106.874,48.3467 -28.0364,4.0496 -76.1582,-44.0358 -87.5666,4.554 -12.8731,28.2336 -8.2795,98.1622 -32.4666,99.3128 -5.1673,-3.947 -10.206,-8.1612 -15.2242,-12.4087 z"
   id="path4500" />
   </g>
</svg>
