<?xml version="1.0" encoding="UTF-8" standalone="no"?>
<!-- Created with Inkscape (http://www.inkscape.org/) -->

<svg
   width="120mm"
   height="120mm"
   id="svg3054"
   version="1.1"
   xml:space="preserve"
   sodipodi:docname="linkki-logo-simple-pride.svg"
   inkscape:version="1.4.2 (ebf0e940d0, 2025-05-08)"
   xmlns:inkscape="http://www.inkscape.org/namespaces/inkscape"
   xmlns:sodipodi="http://sodipodi.sourceforge.net/DTD/sodipodi-0.dtd"
   xmlns:xlink="http://www.w3.org/1999/xlink"
   xmlns="http://www.w3.org/2000/svg"
   xmlns:svg="http://www.w3.org/2000/svg"
   xmlns:rdf="http://www.w3.org/1999/02/22-rdf-syntax-ns#"
   xmlns:cc="http://creativecommons.org/ns#"
   xmlns:dc="http://purl.org/dc/elements/1.1/"><sodipodi:namedview
   id="namedview1"
   pagecolor="#505050"
   bordercolor="#eeeeee"
   borderopacity="1"
   inkscape:showpageshadow="0"
   inkscape:pageopacity="0"
   inkscape:pagecheckerboard="0"
   inkscape:deskcolor="#505050"
   inkscape:document-units="mm"
   inkscape:zoom="0.85769097"
   inkscape:cx="226.18869"
   inkscape:cy="226.18869"
   inkscape:window-width="1451"
   inkscape:window-height="1025"
   inkscape:window-x="0"
   inkscape:window-y="0"
   inkscape:window-maximized="1"
   inkscape:current-layer="svg3054" />
   <defs
   id="defs3"><linearGradient
     id="linearGradient4">
         <stop
   style="stop-color:#e50000;stop-opacity:1;"
   offset="0"
   id="stop5" />
         <stop
   style="stop-color:#ff8d00;stop-opacity:1;"
   offset="0.2"
   id="stop7" />
         <stop
   style="stop-color:#ffee00;stop-opacity:1;"
   offset="0.40000001"
   id="stop8" />
         <stop
   style="stop-color:#028121;stop-opacity:1;"
   offset="0.60000002"
   id="stop9" />
         <stop
   style="stop-color:#004cff;stop-opacity:1;"
   offset="0.80000001"
   id="stop10" />
         <stop
   style="stop-color:#770088;stop-opacity:1;"
   offset="1"
   id="stop6" />
      </linearGradient><linearGradient
     xlink:href="#linearGradient4"
     id="linearGradient6"
     x1="116.94821"
     y1="449.64157"
     x2="361.92075"
     y2="202.7935"
     gradientUnits="userSpaceOnUse" /><linearGradient
     xlink:href="#linearGradient4"
     id="linearGradient12"
     x1="117.0155"
     y1="444.98773"
     x2="366.96155"
     y2="194.59148"
     gradientUnits="userSpaceOnUse"
     gradientTransform="translate(-0.80451111,-0.93474267)" /></defs>
   <metadata
   id="metadata4">
      <rdf:RDF>
         <cc:Work
   rdf:about="">
            <dc:format>image/svg+xml</dc:format>
            <dc:type
   rdf:resource="http://purl.org/dc/dcmitype/StillImage" />
         </cc:Work>
      </rdf:RDF>
   </metadata>
   <g
   id="layer1"
   transform="translate(-29.100829,-24.877748)"
   style="display:inline;stroke-width:9.44882;stroke-dasharray:none">
      <g
   transform="matrix(3.2223986,0,0,3.2223986,-891.26428,-1445.6547)"
   id="g3047"
   style="display:inline;stroke-width:2.93223;stroke-dasharray:none">
         <path
   transform="matrix(0.983666,0,0,1.09418,-10.5751,-62.0301)"
   id="path1349"
   d="m 416.38515,577.40034 c -11.10739,10.10178 -26.44908,16.3526 -43.38631,16.3526 -33.87446,0 -61.36677,-25.00329 -61.36677,-55.81092 0,-30.80764 27.49231,-55.81093 61.36677,-55.81093 16.93723,0 32.27892,6.25082 43.38631,16.3526 l -42.61601,39.45813 z"
   style="display:inline;fill:#035cff;fill-opacity:1;fill-rule:evenodd;stroke:#00006d;stroke-width:2.82638;stroke-linecap:butt;stroke-linejoin:miter;stroke-miterlimit:4;stroke-dasharray:none;stroke-opacity:1" />
         <ellipse
   transform="matrix(1.2179,0,0,1.14616,-84.9689,-78.9538)"
   id="path2825"
   style="display:inline;fill:#035cff;fill-opacity:1;stroke:#00006d;stroke-width:2.48182;stroke-miterlimit:4;stroke-dasharray:none;stroke-opacity:1"
   cx="401.53564"
   cy="528.09302"
   rx="11.111678"
   ry="11.616755" />
         <ellipse
   transform="matrix(-0.704605,-0.413973,0.451739,-0.768884,374.751,1080.08)"
   id="path3795"
   style="display:inline;fill:none;stroke:none;stroke-width:3.43482;stroke-dasharray:none"
   cx="362.64478"
   cy="524.30493"
   rx="84.852814"
   ry="78.53936" />
         <ellipse
   transform="matrix(-0.76837,0.514881,0.563461,0.835267,339.046,-97.5708)"
   id="path3797"
   style="display:inline;fill:none;stroke:none;stroke-width:3.03747;stroke-dasharray:none"
   cx="362.64478"
   cy="524.30493"
   rx="84.852814"
   ry="78.53936" />
      </g>
      <style
   id="style1">
      @media (prefers-color-scheme: dark) {
         #text1 {
            fill: #ddd;
         }
      }
    </style>
      
   </g>
   <g
   id="layer1-7"
   transform="matrix(2.9655594,-0.42496388,0.34323707,2.6378291,-97.17603,-182.76028)"
   style="display:none">
      <ellipse
   style="display:inline;fill:#ffe680;stroke:#f9f9f9;stroke-width:0.264583"
   id="path3-5"
   cx="122.16453"
   cy="101.3186"
   rx="5.8774824"
   ry="5.444057" />
      <path
   style="fill:#070707;fill-opacity:1;stroke:none"
   d="m 34.219801,106.688 c 0.701544,3.40072 0.922291,6.86848 1.309646,10.31875 0.134827,1.20094 0.05718,3.20511 1.145303,3.98507 1.988513,1.42537 6.386036,0.42749 8.657551,0.27194 7.721347,-0.52875 15.554185,-1.62081 23.283332,-1.86433 2.305189,-0.0726 4.473233,1.30065 6.614583,2.01704 3.727518,1.24705 7.535651,2.12604 11.377083,2.94288 12.3039,2.6163 24.227611,3.75989 36.777081,3.75989 7.39675,0 16.02816,-1.07008 22.48958,-4.92234 3.67828,-2.19297 6.88722,-5.37617 5.48222,-9.80844 0,0 -0.29927,-0.76616 -0.76361,-1.56576 -0.77005,-1.50477 -3.19142,-5.24693 -3.19142,-5.24693 1.75216,-0.64859 1.23912,-2.00539 0.82241,-3.85652 -0.75505,-3.354184 -2.64843,-7.695771 -2.08501,-11.112504 -10.58407,0 -20.7499,2.116772 -31.22083,3.130082 -15.727315,1.521992 -31.410393,3.199546 -47.095837,5.262065 -6.976399,0.917347 -13.95981,1.975477 -20.902082,3.140097 -4.273278,0.71687 -8.899885,1.33938 -12.7,3.54901 m 90.222919,-9.525004 c 0.71588,-0.755736 1.49729,0.943571 1.70264,1.5875 0.55831,1.750714 0.67175,4.003054 -0.5304,5.519504 -1.94578,2.4545 -5.7434,1.83987 -6.81424,-1.02159 -0.84442,-2.25644 0.0262,-4.026908 0.8795,-6.085414 l 1.05833,0.264583 c 0.87277,-1.384694 2.47703,-0.971339 3.70417,-0.264583 m -3.70417,1.058333 c -0.7118,1.909651 -1.52914,4.547411 1.05833,5.291671 -0.87448,-2.3207 -1.38884,-2.70752 -0.52916,-5.291671 h -0.52917 m 2.64583,0 c 0.59927,2.196341 0.60292,2.919401 -0.26458,5.027081 2.03623,-0.65963 1.87874,-3.960487 0.26458,-5.027081 m -2.11666,1.5875 v 0 m 1.85208,0 v 0 m 23.8125,7.937501 v 0 m 2.29306,3.88055 0.97758,0.0415 z"
   id="path1" />
      <path
   style="display:inline;fill:#f9f9f9;stroke:#000000;stroke-width:1.165;stroke-dasharray:none;stroke-opacity:1"
   d="m 33.923914,107.54159 c -1.155255,0.18267 -2.116042,-0.29611 -1.95109,-6.15376 -1.176789,-7.456872 -4.138066,-11.733063 -3.944106,-13.856492 -0.154002,-3.053672 1.885674,-6.374545 1.885674,-6.374545 4.068868,-6.252462 18.944063,-9.254011 18.944063,-9.254011 12.441314,-3.308442 33.727133,-7.579632 33.727133,-7.579632 0,0 14.63299,-1.999467 30.993372,-3.680751 9.03725,-0.800608 16.09718,-0.544254 16.09718,-0.544254 7.67339,0.616387 18.84391,4.192289 18.84391,4.192289 3.18854,1.546833 3.04881,5.142293 3.04881,5.142293 0.22171,1.699332 -0.80728,6.065243 -0.80728,6.065243 0,0 -2.49953,2.924253 -2.90618,6.497624 0.10299,1.21533 0,6.686491 0,6.686491 l -0.41382,2.388633 -1.40368,1.062031 c 0,0 -3.52906,1.720159 -6.83315,1.798637 -5.0364,0.343196 -16.51138,0.833936 -16.51138,0.833936 l -64.296692,7.042428 z"
   id="path2" />
      <path
   style="fill:#070707;fill-opacity:0;stroke:#e8e8e8;stroke-width:1.165;stroke-dasharray:none;stroke-opacity:1"
   d="m 122.71588,68.782898 c 0,0 1.46003,21.847363 -1.0815,26.821303"
   id="path4-3" />
      <path
   style="fill:#070707;fill-opacity:0;stroke:#e8e8e8;stroke-width:1.165;stroke-dasharray:none;stroke-opacity:1"
   d="M 30.860635,80.046849 C 81.339046,77.265716 147.8904,64.095522 147.8904,64.095522"
   id="path6" />
      <path
   style="display:inline;fill:#000000;fill-opacity:0;stroke:#000000;stroke-width:1.165;stroke-dasharray:none;stroke-opacity:1"
   d="m 33.923914,107.54159 c -1.155255,0.18267 -2.116042,-0.29611 -1.95109,-6.15376 -1.176789,-7.456872 -4.138066,-11.733063 -3.944106,-13.856492 -0.154002,-3.053672 1.885674,-6.374545 1.885674,-6.374545 4.068868,-6.252462 18.944063,-9.254011 18.944063,-9.254011 12.441314,-3.308442 33.727133,-7.579632 33.727133,-7.579632 0,0 14.63299,-1.999467 30.993372,-3.680751 9.03725,-0.800608 16.09718,-0.544254 16.09718,-0.544254 7.67339,0.616387 18.84391,4.192289 18.84391,4.192289 3.18854,1.546833 3.04881,5.142293 3.04881,5.142293 0.22171,1.699332 -0.80728,6.065243 -0.80728,6.065243 0,0 -2.49953,2.924253 -2.90618,6.497624 0.10299,1.21533 0,6.686491 0,6.686491 l -0.41382,2.388633 -1.40368,1.062031 c 0,0 -3.52906,1.720159 -6.83315,1.798637 -5.0364,0.343196 -16.51138,0.833936 -16.51138,0.833936 l -64.296692,7.042428 z"
   id="path5-5" />
   </g>
   <g
   id="pride"
   style="display:inline"
   transform="translate(-27.67258,-81.245537)">
      <path
   id="path1349-6"
   d="m 393.06849,446.64112 c -35.2078,35.6177 -83.8373,57.65737 -137.5243,57.65737 -107.3741,0 -194.518197,-88.1587 -194.518197,-196.78283 0,-108.62417 87.144097,-196.78287 194.518197,-196.78287 53.687,0 102.3165,22.03966 137.5243,57.65737 l -135.0827,139.12479 z"
   style="display:inline;mix-blend-mode:normal;fill:url(#linearGradient6);fill-rule:evenodd;stroke:#00006d;stroke-width:5.67685;stroke-linecap:butt;stroke-linejoin:miter;stroke-miterlimit:4;stroke-dasharray:none;stroke-opacity:1" />
      <ellipse
   id="path2825-5"
   style="display:inline;opacity:1;fill:url(#linearGradient12);stroke:#00006d;stroke-width:5.21478;stroke-miterlimit:4;stroke-dasharray:none;stroke-opacity:1"
   cx="409.56079"
   cy="306.59058"
   rx="43.60844"
   ry="42.90514" />
   </g>
   <g
   id="jouluhattu"
   fill="#000000"
   stroke="none"
   style="display:none"
   transform="matrix(-0.06110995,0.03090211,0.02437213,0.04028347,228.8825,-185.51317)">
      <path
   d="M 1385,5910 C 1234.6558,5883.2298 1078.9907,5878.4432 931.125,5843.125 758.69388,5813.4767 743.95629,5605.2253 735.90625,5462.25 721.94286,5267.3667 737.63363,5068.5925 725.89879,4875.0539 710.12321,4823.6013 642.42601,4771.8268 687.25596,4720.1415 748.2465,4599.6897 741.47297,4458.8565 752.75,4326.625 792.31815,4187.9461 805.66722,4042.1609 850,3906 c 45.40528,-61.236 169.9696,-195.9543 227.875,-158 5.579,174.9243 183.3546,158.3602 317.25,175.125 138.2489,30.7987 281.0668,39.133 419.875,66.875 625.8593,17.9055 1252.5912,5.8037 1878.8417,8.2611 95.9614,-3.007 194.8634,5.598 289.0265,-4.5099 C 4107.8956,3946.3532 4141.5502,3804.283 4212,3704 c 115.8294,85.0248 244.4071,197.0297 248,351 23.2447,134.2352 76.5895,268.7539 83.0938,401.3125 C 4428.3178,4590.435 4524.8844,4733.6216 4490,4875 c -66.6898,127.797 -20.7912,272.3126 -2.75,408.875 7.6244,147.0602 55.1358,317.1258 -41.625,442 -132.6825,33.4822 -262.2952,71.4811 -396.625,97.25 -133.1755,37.6578 -272.4632,52.4281 -410.3379,72.6758 -271.1434,6.3882 -542.5746,0.8034 -812.9663,20.5976 -480.06,3.1237 -961.0086,11.4372 -1440.6958,-6.3984 z"
   id="path4485"
   style="fill:#ffffff;fill-opacity:1;stroke:#000000;stroke-width:67;stroke-miterlimit:4;stroke-dasharray:none;stroke-opacity:1" />
      <path
   d="m 4906.9194,3330.3351 c -162.5144,-71.8419 -310.1308,-184.894 -443.6993,-322.1116 -224.5815,-184.3468 -432.2055,-402.5041 -670.02,-558.8822 -162.5802,-116.5408 -318.2133,-251.6121 -488.5601,-348.582 -110.2811,-62.4507 -228.1374,-33.7893 -343.6012,-28.2568 81.9473,-123.3012 193.4468,-215.9523 285.5637,-329.5316 212.6887,-206.9812 457.3162,-354.795 678.2033,-544.745 90.9905,101.6708 150.7032,252.183 224.7285,377.5198 272.8422,467.3876 508.6441,968.6313 758.5292,1457.023 43.2637,81.6103 75.6855,306.324 -1.1441,297.5664 z"
   id="path4487"
   style="fill:#aa0000;fill-opacity:1;stroke:#000000;stroke-width:49.2254;stroke-linecap:round;stroke-linejoin:bevel;stroke-miterlimit:4;stroke-dasharray:none;stroke-opacity:1" />
      <path
   d="m 1387.3023,3972.7006 c -168.9579,-5.9962 -361.853,-20.8329 -206.8641,-164.0392 64.742,-183.9323 223.857,-350.5423 335.7856,-525.4457 140.5382,-181.4919 231.4177,-383.6396 443.592,-537.2255 178.6576,-147.9966 353.8522,-300.3053 535.1512,-445.1414 189.3605,-101.7845 401.2701,-126.8612 611.174,-78.7958 229.4075,1.1393 370.4914,142.1767 538.2274,224.2494 185.4925,106.5372 354.3346,230.6689 334.5407,412.0781 55.1696,232.3318 106.0674,467.3572 154.8631,700.3245 66.0115,110.4062 -11.8288,250.252 -121.5486,336.9841 -230.4536,-13.5286 -464.658,1.2326 -697.5165,27.1257 -269.5655,14.6997 -541.0846,38.8121 -808.4868,21.0282 -372.8363,-8.721 -747.8632,40.8568 -1118.918,28.8576 z"
   id="path4489"
   style="fill:#aa0000;fill-opacity:1;stroke:#000000;stroke-width:69.1863;stroke-linecap:round;stroke-linejoin:bevel;stroke-miterlimit:4;stroke-dasharray:none;stroke-opacity:1" />
      <path
   style="fill:#ffffff;fill-opacity:1;stroke:#000000;stroke-width:65.433;stroke-linecap:round;stroke-linejoin:bevel;stroke-miterlimit:4;stroke-dasharray:none;stroke-opacity:1"
   d="m 5175.4191,4297.258 c -27.2635,-24.5714 -45.7912,-58.5492 -63.2859,-92.5276 -4.867,-49.9278 -35.8712,-76.5069 -72.7405,-74.9965 -15.7057,-22.8758 -13.7164,-57.6407 -20.0337,-86.3437 1.0151,-20.6214 -19.2947,-15.218 -29.8219,-21.7532 -28.2343,-7.3397 -61.3887,-20.0509 -69.1825,-60.7297 -13.8673,-40.6687 1.8002,-82.8335 -8.3308,-125.0792 15.7659,-43.0745 -24.7093,-43.0989 -42.1048,-52.5705 -11.9771,-34.2628 -10.8678,-69.5307 24.2203,-72.2729 9.447,-11.55 32.8824,-18.0899 23.858,-39.5081 -7.7103,-50.1266 -15.4205,-100.2529 -23.1308,-150.3794 19.6636,-23.1625 47.8776,-26.1027 66.6532,-48.9588 21.3191,-36.0853 30.3909,-90.7401 56.4159,-127.1885 25.1173,-53.2024 56.5975,12.4738 90.4107,-11.6467 33.2494,-11.3197 72.1163,-22.9577 97.1837,15.9473 15.8872,38.1925 50.0511,43.5666 77.5657,44.8612 16.2083,34.5969 22.0777,82.2858 50.0967,106.0198 22.5631,-20.3631 51.067,-43.3165 78.913,-45.3945 17.1612,25.7395 -14.2715,110.4184 31.876,83.2352 18.58,-28.1177 51.8635,-25.1267 57.1054,13.0786 18.5103,34.208 -16.0022,79.4051 -25.7419,114.1579 -9.0191,42.2168 37.3055,75.8197 27.7317,121.2237 -17.1875,46.0571 12.8824,101.1716 -18.6647,140.6288 -23.6832,33.9359 -25.6481,79.1341 -32.3753,119.1945 -4.728,37.638 6.7665,104.472 -34.4861,111.1975 -35.0129,18.8889 -64.8706,61.9088 -106.874,48.3467 -28.0364,4.0496 -76.1582,-44.0358 -87.5666,4.554 -12.8731,28.2336 -8.2795,98.1622 -32.4666,99.3128 -5.1673,-3.947 -10.206,-8.1612 -15.2242,-12.4087 z"
   id="path4500" />
   </g>
</svg>
